<svg xmlns="http://www.w3.org/2000/svg" width="135" height="121.843" viewBox="0 0 135 121.843">
  <g id="Grupo_8722" data-name="Grupo 8722" transform="translate(-1474 -855.079)">
    <g id="Grupo_8618" data-name="Grupo 8618" transform="translate(1480.143 854)">
      <g id="Trazado_10753" data-name="Trazado 10753" transform="translate(-0.143)" fill="#8a5fa4">
        <path d="M 70.23471069335938 121.4212646484375 C 69.92584228515625 121.4212799072266 69.62832641601562 121.3269271850586 69.37429046630859 121.1484451293945 L 64.58714294433594 117.7847290039062 C 63.82549285888672 117.2495651245117 62.93087387084961 116.9666748046875 62.00002670288086 116.9666748046875 C 61.06914138793945 116.9666748046875 60.17452621459961 117.2495651245117 59.41287612915039 117.7847595214844 L 54.62575912475586 121.1484298706055 C 54.37177658081055 121.3268966674805 54.0742073059082 121.4212265014648 53.76520919799805 121.4212646484375 C 53.3046760559082 121.4212951660156 52.87632751464844 121.2150955200195 52.58999252319336 120.8555297851562 L 48.92379379272461 116.251708984375 C 48.06501007080078 115.1732940673828 46.78177642822266 114.5547943115234 45.40311050415039 114.5547943115234 C 44.91390991210938 114.5547943115234 44.43034362792969 114.6342086791992 43.96582412719727 114.7908248901367 L 38.43391036987305 116.6560592651367 C 38.27792739868164 116.7086639404297 38.11667633056641 116.7353286743164 37.95462417602539 116.7353286743164 C 37.34302520751953 116.7353439331055 36.79807662963867 116.3692092895508 36.56629180908203 115.8025817871094 L 34.32102584838867 110.3135147094727 C 33.62617492675781 108.6148147583008 31.99157524108887 107.5171966552734 30.15669250488281 107.5171966552734 C 30.10124206542969 107.5171966552734 30.04572486877441 107.5182113647461 29.98999214172363 107.520263671875 L 24.14315986633301 107.7360763549805 C 24.12410926818848 107.7367782592773 24.10504150390625 107.7371292114258 24.08612632751465 107.7371292114258 C 23.31750869750977 107.737174987793 22.67695808410645 107.160026550293 22.59612655639648 106.394645690918 L 21.96894264221191 100.4557113647461 C 21.77262496948242 98.59676361083984 20.42432594299316 97.03517913818359 18.61385917663574 96.56993103027344 L 12.91374206542969 95.10506439208984 C 12.15727615356445 94.91065979003906 11.67274284362793 94.15615844726562 11.81067562103271 93.38735961914062 L 12.86962604522705 87.48516082763672 C 13.19797611236572 85.65484619140625 12.34649276733398 83.78364562988281 10.75080871582031 82.82889556884766 L 5.661775588989258 79.78402709960938 C 4.994425773620605 79.38475799560547 4.742575645446777 78.52635955810547 5.08839225769043 77.82982635498047 L 7.754909038543701 72.45893096923828 C 8.579225540161133 70.79854583740234 8.288291931152344 68.76777648925781 7.030975818634033 67.40560913085938 L 2.980458974838257 63.01747894287109 C 2.453859090805054 62.44697952270508 2.453859090805054 61.55317687988281 2.980458974838257 60.98266220092773 L 7.030959129333496 56.59451293945312 C 8.288309097290039 55.23236083984375 8.579225540161133 53.20159530639648 7.754892349243164 51.54121017456055 L 5.088375568389893 46.17032623291016 C 4.742542266845703 45.47379302978516 4.994409084320068 44.61539459228516 5.661742210388184 44.21612930297852 L 10.75075912475586 41.17122650146484 C 12.34645938873291 40.21647644042969 13.19795894622803 38.34527969360352 12.86959266662598 36.51499557495117 L 11.81064224243164 30.61272811889648 C 11.67270946502686 29.84396171569824 12.15724277496338 29.08946228027344 12.91370868682861 28.89506149291992 L 18.61384201049805 27.43019485473633 C 20.42430877685547 26.96492767333984 21.77260971069336 25.40334510803223 21.96889305114746 23.54437828063965 L 22.59605979919434 17.60549545288086 C 22.67689323425293 16.84012794494629 23.31747627258301 16.26297760009766 24.08614158630371 16.26297760009766 C 24.10507583618164 16.26297760009766 24.12400817871094 16.26332855224609 24.14309310913086 16.26402854919434 L 29.99000930786133 16.47979545593262 C 30.04562568664551 16.48184394836426 30.10132598876953 16.48286056518555 30.15665817260742 16.48286056518555 C 31.99150848388672 16.48286056518555 33.6261100769043 15.38526153564453 34.32097625732422 13.68659496307373 L 36.56625747680664 8.197578430175781 C 36.79804229736328 7.630978107452393 37.34300994873047 7.264861583709717 37.95462417602539 7.264861583709717 C 38.11664199829102 7.264861583709717 38.27787399291992 7.291528224945068 38.43386077880859 7.344111442565918 L 43.96584320068359 9.209294319152832 C 44.43032455444336 9.365911483764648 44.91387557983398 9.445311546325684 45.403076171875 9.445311546325684 C 46.78174209594727 9.445311546325684 48.06499099731445 8.826811790466309 48.92375946044922 7.748394966125488 L 52.58995819091797 3.144511461257935 C 52.87625885009766 2.784978151321411 53.30466079711914 2.578778028488159 53.76530838012695 2.578778028488159 C 54.07419204711914 2.578778028488159 54.37172698974609 2.673128128051758 54.62575912475586 2.851611375808716 L 59.41282653808594 6.215361595153809 C 60.17449188232422 6.750561237335205 61.06912612915039 7.033444881439209 62.00000762939453 7.033444881439209 C 62.93089294433594 7.033444881439209 63.82550811767578 6.750561237335205 64.58717346191406 6.215361595153809 L 69.37429046630859 2.851594686508179 C 69.62832641601562 2.673111438751221 69.92585754394531 2.578761339187622 70.2347412109375 2.578761339187622 C 70.69537353515625 2.578761339187622 71.123779296875 2.784961462020874 71.41007232666016 3.144494771957397 L 75.07630920410156 7.748394966125488 C 75.93507385253906 8.826811790466309 77.21832275390625 9.445311546325684 78.59699249267578 9.445311546325684 C 79.08618927001953 9.445311546325684 79.56974029541016 9.365911483764648 80.03424072265625 9.209294319152832 L 85.56619262695312 7.344111442565918 C 85.72219085693359 7.291511535644531 85.8834228515625 7.26484489440918 86.04544067382812 7.26484489440918 C 86.65704345703125 7.26484489440918 87.20199584960938 7.630961418151855 87.43377685546875 8.197578430175781 L 89.67906188964844 13.68656158447266 C 90.37389373779297 15.38524436950684 92.00849151611328 16.48284530639648 93.84337615966797 16.48284530639648 C 93.89882659912109 16.48284530639648 93.95429229736328 16.4818286895752 94.01002502441406 16.47977828979492 L 99.85691070556641 16.26401138305664 C 99.87594604492188 16.2633113861084 99.89497375488281 16.26296234130859 99.91387939453125 16.26296234130859 C 100.6825103759766 16.26296234130859 101.3230895996094 16.84009552001953 101.403923034668 17.60544395446777 L 102.0311431884766 23.54436111450195 C 102.2274627685547 25.40329551696777 103.5757446289062 26.9648609161377 105.3861770629883 27.43012809753418 L 111.0863952636719 28.89502716064453 C 111.8428726196289 29.08942794799805 112.3274078369141 29.84391212463379 112.1894760131836 30.61269569396973 L 111.1305084228516 36.51494598388672 C 110.8021240234375 38.34524536132812 111.6535949707031 40.21644592285156 113.2492904663086 41.17119598388672 L 118.3382415771484 44.21602630615234 C 119.0055770874023 44.61532974243164 119.2574234008789 45.47371292114258 118.9116058349609 46.17024612426758 L 116.2450408935547 51.54114532470703 C 115.4206924438477 53.2015266418457 115.7116241455078 55.23232650756836 116.968994140625 56.5944938659668 L 121.0195083618164 60.98259353637695 C 121.5461273193359 61.55309295654297 121.546142578125 62.4469108581543 121.0195236206055 63.01742935180664 L 116.9689788818359 67.40556335449219 C 115.7116241455078 68.76773071289062 115.4207077026367 70.79850769042969 116.2450408935547 72.45889282226562 L 118.9116287231445 77.82981109619141 C 119.257438659668 78.52635955810547 119.0055770874023 79.38474273681641 118.3382415771484 79.78402709960938 L 113.2493057250977 82.82888031005859 C 111.6535949707031 83.78364562988281 110.8021087646484 85.65484619140625 111.1305084228516 87.48513031005859 L 112.1894760131836 93.38737487792969 C 112.3274078369141 94.15615844726562 111.8428726196289 94.91064453125 111.0863952636719 95.10504150390625 L 105.3861923217773 96.56990814208984 C 103.5757598876953 97.03519439697266 102.2274627685547 98.59676361083984 102.0311279296875 100.455680847168 L 101.4039459228516 106.3946151733398 C 101.323112487793 107.159912109375 100.6824951171875 107.737060546875 99.91381072998047 107.7370910644531 C 99.91339874267578 107.7370986938477 99.91298675537109 107.7370986938477 99.91257476806641 107.7370986938477 C 99.89405059814453 107.7370986938477 99.87554168701172 107.7367324829102 99.85691070556641 107.7360458374023 L 94.01007843017578 107.5202255249023 C 93.95446014404297 107.518180847168 93.89871215820312 107.5171585083008 93.84337615966797 107.5171585083008 C 92.00849151611328 107.5171585083008 90.37389373779297 108.6147766113281 89.67903900146484 110.3134765625 L 87.43376159667969 115.8025588989258 C 87.20199584960938 116.3691482543945 86.65700531005859 116.7352600097656 86.04534149169922 116.7352981567383 C 85.88340759277344 116.7353134155273 85.72219085693359 116.7086410522461 85.56617736816406 116.6560287475586 L 80.03424072265625 114.7908096313477 C 79.56974029541016 114.6341934204102 79.08617401123047 114.5547790527344 78.59696197509766 114.5547790527344 C 77.21829223632812 114.5547790527344 75.93505859375 115.1732788085938 75.0762939453125 116.2516937255859 L 71.41005706787109 120.8555450439453 C 71.12375640869141 121.2150802612305 70.69535827636719 121.4212646484375 70.23471069335938 121.4212646484375 Z" stroke="none"/>
        <path d="M 70.23658752441406 4.078987121582031 L 70.23667907714844 4.07891845703125 L 65.44953918457031 7.442665100097656 C 64.43399047851562 8.15625 63.24117279052734 8.533432006835938 61.99999237060547 8.533432006835938 C 60.75882720947266 8.533432006835938 59.56600952148438 8.15625 58.55044555664062 7.442665100097656 L 53.76335906982422 4.07891845703125 L 50.09717559814453 8.682807922363281 C 48.95215606689453 10.12066650390625 47.24122619628906 10.94532012939453 45.40306854248047 10.94532012939453 C 44.7506103515625 10.94532012939453 44.10581207275391 10.83946228027344 43.48659515380859 10.63068389892578 L 37.95390319824219 8.767204284667969 L 35.70932006835938 14.25444793701172 C 34.78286743164062 16.51937866210938 32.60330200195312 17.98286437988281 30.15664672851562 17.98286437988281 C 30.08342742919922 17.98286437988281 30.00895690917969 17.98149871826172 29.93468475341797 17.97877502441406 L 24.08758544921875 17.76483154296875 L 23.46060943603516 23.70191955566406 C 23.19884490966797 26.18050384521484 21.40113830566406 28.26261138916016 18.98719024658203 28.88297271728516 L 13.28706359863281 30.34784698486328 L 14.34600830078125 36.25009918212891 C 14.78384399414062 38.69048309326172 13.64853668212891 41.18540954589844 11.52091979980469 42.45842742919922 L 6.431900024414062 45.50330352783203 L 9.098411560058594 50.87417602539062 C 10.19751739501953 53.08798980712891 9.80963134765625 55.79566955566406 8.133171081542969 57.61190032958984 L 4.082679748535156 62.00006484985352 L 8.133193969726562 66.38821411132812 C 9.809646606445312 68.20445251464844 10.19754028320312 70.91213989257812 9.098411560058594 73.12593841552734 L 6.431922912597656 78.49684906005859 L 11.52091979980469 81.54170227050781 C 13.64857482910156 82.814697265625 14.78388214111328 85.30964660644531 14.34603118896484 87.75003051757812 L 13.28708648681641 93.65228271484375 L 18.98726654052734 95.11714172363281 C 21.40119171142578 95.73751831054688 23.19889831542969 97.81961059570312 23.46066284179688 100.2981948852539 L 24.08782958984375 106.2371063232422 L 29.93406677246094 106.0213012695312 C 30.00769805908203 106.0185775756836 30.08261108398438 106.0171966552734 30.15668487548828 106.0171966552734 C 32.60334014892578 106.0171966552734 34.78289794921875 107.4806823730469 35.70937347412109 109.7456283569336 L 37.95464324951172 115.2346649169922 L 43.486572265625 113.3694686889648 C 44.10581207275391 113.1606674194336 44.75064849853516 113.0547943115234 45.40313720703125 113.0547943115234 C 47.24127960205078 113.0547943115234 48.95220947265625 113.8794479370117 50.09719085693359 115.3172836303711 L 53.76337432861328 119.9211044311523 L 58.55048370361328 116.5574111938477 C 59.56600952148438 115.8438491821289 60.75882720947266 115.466682434082 62.0000114440918 115.466682434082 C 63.24117279052734 115.466682434082 64.43400573730469 115.843864440918 65.44950103759766 116.5574111938477 L 70.23666381835938 119.9211196899414 L 73.90292358398438 115.3172302246094 C 75.04794311523438 113.8794097900391 76.75885009765625 113.0547790527344 78.59695434570312 113.0547790527344 C 79.24937438964844 113.0547790527344 79.89417266845703 113.1606292724609 80.51350402832031 113.3694305419922 L 86.04608154296875 115.2330169677734 L 88.29071807861328 109.7455596923828 C 89.21720886230469 107.4806289672852 91.39675903320312 106.0171585083008 93.84337615966797 106.0171585083008 C 93.9166259765625 106.0171585083008 93.99110412597656 106.0185241699219 94.06539154052734 106.0212478637695 L 99.9122314453125 106.2370681762695 L 100.5394134521484 100.2981719970703 C 100.8011779785156 97.81957244873047 102.5988998413086 95.73746490478516 105.0128479003906 95.11714172363281 L 110.7130279541016 93.65226745605469 L 109.6540679931641 87.75001525878906 C 109.2162322998047 85.30959320068359 110.3515548706055 82.81466674804688 112.4791412353516 81.54168701171875 L 117.5680847167969 78.49684906005859 L 114.9015197753906 73.12591552734375 C 113.8023910522461 70.91206359863281 114.190299987793 68.20437622070312 115.8667755126953 66.38815307617188 L 119.9173049926758 62.0000114440918 L 115.8667755126953 57.61190032958984 C 114.1902847290039 55.79564666748047 113.802375793457 53.08792114257812 114.9015197753906 50.87409973144531 L 117.5680847167969 45.50322723388672 L 112.4791717529297 42.45839691162109 C 110.3515396118164 41.18540954589844 109.2162094116211 38.69044494628906 109.6540832519531 36.25004577636719 L 110.7130279541016 30.34780883789062 L 105.0128479003906 28.88291931152344 C 102.5988998413086 28.26259613037109 100.8011779785156 26.18048095703125 100.5394287109375 23.701904296875 L 99.9122314453125 17.76299285888672 L 94.06597137451172 17.97873687744141 C 93.99234008789062 17.98146820068359 93.91744995117188 17.98284912109375 93.84339141845703 17.98284912109375 C 91.39675903320312 17.98284912109375 89.21720886230469 16.51937866210938 88.29071807861328 14.25446319580078 L 86.04542541503906 8.765487670898438 L 80.513427734375 10.63068389892578 C 79.89421081542969 10.83944702148438 79.24942779541016 10.94530487060547 78.59699249267578 10.94530487060547 C 76.75885009765625 10.94530487060547 75.04792022705078 10.12065124511719 73.90290069580078 8.682807922363281 L 70.23658752441406 4.078987121582031 M 70.2347412109375 1.078758239746094 C 71.11947631835938 1.078758239746094 71.99329376220703 1.468940734863281 72.58348083496094 2.2100830078125 L 76.24970245361328 6.813972473144531 C 77.03655242919922 7.802085876464844 78.35805511474609 8.191444396972656 79.55499267578125 7.78790283203125 L 85.08695983886719 5.922721862792969 C 86.58735656738281 5.416847229003906 88.22261047363281 6.164115905761719 88.82209777832031 7.629669189453125 L 91.06739807128906 13.11864471435547 C 91.54391479492188 14.2835693359375 92.69686889648438 15.02734375 93.95471954345703 14.98079681396484 L 99.80158996582031 14.76502990722656 C 101.3778533935547 14.70650482177734 102.7299728393555 15.87928771972656 102.8956298828125 17.44792175292969 L 103.5228271484375 23.38683319091797 C 103.6543884277344 24.63262939453125 104.5462265014648 25.66553497314453 105.7595367431641 25.97734069824219 L 111.4597396850586 27.44223022460938 C 112.9810791015625 27.83319091796875 113.9432830810547 29.33150482177734 113.665885925293 30.87759399414062 L 112.60693359375 36.77983093261719 C 112.3866500854492 38.00759124755859 112.9490661621094 39.24357604980469 114.0194625854492 39.88401031494141 L 119.1083908081055 42.92884826660156 C 120.4520263671875 43.73275756835938 120.9514083862305 45.43484497070312 120.2551193237305 46.83730316162109 L 117.5885772705078 52.20817565917969 C 117.035285949707 53.32257843017578 117.2273025512695 54.66282653808594 118.0712127685547 55.57708740234375 L 122.1217193603516 59.96517181396484 C 123.1824798583984 61.11435699462891 123.182502746582 62.88564682006836 122.1217346191406 64.03482818603516 L 118.0711898803711 68.4229736328125 C 117.2273025512695 69.33721160888672 117.0353012084961 70.67746734619141 117.5885772705078 71.7918701171875 L 120.2551345825195 77.16278076171875 C 120.9514083862305 78.56521606445312 120.4520263671875 80.26728820800781 119.1083908081055 81.07121276855469 L 114.0194625854492 84.11606597900391 C 112.9490661621094 84.75650024414062 112.3866500854492 85.99248504638672 112.6069183349609 87.22023010253906 L 113.665885925293 93.12246704101562 C 113.9432830810547 94.6685791015625 112.9810791015625 96.16688537597656 111.4597396850586 96.55784606933594 L 105.7595367431641 98.02272033691406 C 104.5462265014648 98.33451843261719 103.6543884277344 99.36740875244141 103.5228271484375 100.6132278442383 L 102.8956298828125 106.5521392822266 C 102.7299728393555 108.1207733154297 101.3777389526367 109.2931823730469 99.80157470703125 109.2350311279297 L 93.95474243164062 109.0192108154297 C 92.69692230224609 108.9727554321289 91.54391479492188 109.7164306640625 91.06739807128906 110.8813781738281 L 88.82209777832031 116.3704452514648 C 88.22262573242188 117.8360137939453 86.58737182617188 118.5833206176758 85.0869140625 118.0774078369141 L 79.55499267578125 116.2121963500977 C 78.35805511474609 115.8086090087891 77.03656005859375 116.197998046875 76.24967956542969 117.1861038208008 L 72.58346557617188 121.7899551391602 C 71.5948486328125 123.0313873291016 69.81040954589844 123.2881240844727 68.51191711425781 122.3757553100586 L 63.72475433349609 119.0120468139648 C 62.68988800048828 118.2848892211914 61.31012725830078 118.2849044799805 60.27524566650391 119.0120468139648 L 55.48813629150391 122.3757400512695 C 54.18962097167969 123.2881240844727 52.40519714355469 123.0313873291016 51.41657257080078 121.7899398803711 L 47.75038909912109 117.1861190795898 C 46.96353149414062 116.1980056762695 45.64202880859375 115.8086318969727 44.44509887695312 116.2122116088867 L 38.91313934326172 118.0774307250977 C 37.41270446777344 118.5833587646484 35.77744293212891 117.8360290527344 35.17795562744141 116.3704681396484 L 32.93268585205078 110.8814086914062 C 32.45615386962891 109.7164459228516 31.30324554443359 108.972785949707 30.04531860351562 109.0192489624023 L 24.198486328125 109.2350692749023 C 22.62228393554688 109.2932662963867 21.27006530761719 108.1208114624023 21.10440826416016 106.5521774291992 L 20.47724914550781 100.6132507324219 C 20.34568023681641 99.367431640625 19.45384979248047 98.33454132080078 18.24053955078125 98.02272033691406 L 12.54039001464844 96.557861328125 C 11.01905059814453 96.16688537597656 10.05684661865234 94.66859436035156 10.33424377441406 93.12248229980469 L 11.39317321777344 87.22024536132812 C 11.61346435546875 85.99248504638672 11.051025390625 84.75651550292969 9.980628967285156 84.1160888671875 L 4.891609191894531 81.07122802734375 C 3.5479736328125 80.26730346679688 3.048576354980469 78.56523132324219 3.744850158691406 77.16279602050781 L 6.411354064941406 71.79188537597656 C 6.964630126953125 70.67750549316406 6.772628784179688 69.33726501464844 5.928741455078125 68.42301177978516 L 1.878250122070312 64.03488159179688 C 0.8174819946289062 62.88571929931641 0.8174819946289062 61.11444854736328 1.878250122070312 59.96526336669922 L 5.928741455078125 55.57710266113281 C 6.772613525390625 54.66286468505859 6.964630126953125 53.3226318359375 6.411354064941406 52.20822906494141 L 3.744850158691406 46.83735656738281 C 3.048553466796875 45.43492126464844 3.547958374023438 43.73284912109375 4.891593933105469 42.92891693115234 L 9.980613708496094 39.88404846191406 C 11.05101013183594 39.24359130859375 11.61342620849609 38.00762939453125 11.39315795898438 36.77986907958984 L 10.33421325683594 30.87763214111328 C 10.05683135986328 29.33153533935547 11.01901245117188 27.83322906494141 12.54035949707031 27.44226837158203 L 18.24048614501953 25.97739410400391 C 19.45381164550781 25.66557312011719 20.34562683105469 24.63268280029297 20.47719573974609 23.38686370849609 L 21.10435485839844 17.44795989990234 C 21.27001190185547 15.87930297851562 22.62210083007812 14.70687103271484 24.19839477539062 14.76504516601562 L 30.04531860351562 14.98081207275391 C 31.30299377441406 15.02738952636719 32.45612335205078 14.28362274169922 32.93263244628906 13.11866760253906 L 35.17794036865234 7.629669189453125 C 35.77740478515625 6.164146423339844 37.41268920898438 5.4168701171875 38.91310119628906 5.922721862792969 L 44.44508361816406 7.787918090820312 C 45.6419677734375 8.191444396972656 46.96349334716797 7.802078247070312 47.75037384033203 6.813972473144531 L 51.41655731201172 2.210105895996094 C 52.40517425537109 0.9686355590820312 54.18964385986328 0.711883544921875 55.48813629150391 1.624305725097656 L 60.27523040771484 4.988044738769531 C 61.31009674072266 5.715232849121094 62.68989944458008 5.715232849121094 63.72477340698242 4.988044738769531 L 68.51190185546875 1.624305725097656 C 69.03521728515625 1.256584167480469 69.63746643066406 1.078758239746094 70.2347412109375 1.078758239746094 Z" stroke="none" fill="#eee6f1"/>
      </g>
      <ellipse id="Elipse_407" data-name="Elipse 407" cx="39" cy="38.5" rx="39" ry="38.5" transform="translate(22.857 24)" fill="#fff"/>
    </g>
    <rect id="Rectángulo_2996" data-name="Rectángulo 2996" width="135" height="35" rx="5" transform="translate(1474 899)" fill="#eee6f1"/>
    <text id="Approved" transform="translate(1540 922)" fill="#61d58c" font-size="21" font-family="SegoeUI, Segoe UI" letter-spacing="0.01em"><tspan x="-46.36" y="0">Approved</tspan></text>
  </g>
</svg>
