<?xml version="1.0" standalone="no"?>
<!DOCTYPE svg PUBLIC "-//W3C//DTD SVG 20010904//EN"
 "http://www.w3.org/TR/2001/REC-SVG-20010904/DTD/svg10.dtd">
<svg version="1.0" xmlns="http://www.w3.org/2000/svg"
 width="4000.000000pt" height="3000.000000pt" viewBox="0 0 4000.000000 3000.000000"
 preserveAspectRatio="xMidYMid meet">
<metadata>
Created by potrace 1.16, written by Peter Selinger 2001-2019
</metadata>
<g transform="translate(0.000000,3000.000000) scale(0.100000,-0.100000)"
fill="#000000" stroke="none">
<path d="M14475 21537 c-11 -7 -38 -19 -60 -26 -22 -8 -52 -22 -67 -32 -14
-11 -34 -19 -45 -19 -10 0 -34 -10 -53 -22 -30 -18 -116 -65 -203 -110 -47
-24 -57 -28 -72 -28 -8 0 -19 -9 -25 -20 -6 -11 -16 -20 -23 -20 -7 0 -23 -9
-37 -20 -14 -11 -31 -20 -37 -20 -7 0 -50 -24 -95 -52 -92 -59 -348 -306 -348
-336 0 -4 -20 -30 -45 -57 -25 -28 -45 -53 -45 -57 0 -4 -15 -28 -34 -53 -163
-212 -390 -705 -490 -1063 -37 -130 -82 -364 -103 -532 -22 -181 -25 -732 -5
-905 30 -258 5 -120 592 -3195 715 -3741 861 -4499 890 -4611 134 -522 400
-1052 727 -1447 97 -117 333 -348 453 -445 486 -392 1106 -623 1895 -707 50
-5 166 -21 259 -35 368 -56 683 -75 935 -56 170 13 235 25 391 71 58 17 1428
461 3045 986 2641 858 2953 961 3065 1017 69 34 130 66 136 72 6 5 54 37 107
69 95 59 176 119 130 96 -12 -5 -26 -10 -30 -9 -13 2 -53 -13 -53 -20 0 -3
-25 -6 -55 -5 -30 0 -55 -2 -55 -6 0 -3 -21 -5 -46 -3 -32 3 -44 0 -39 -8 5
-8 0 -9 -16 -4 -46 15 -228 25 -235 14 -3 -5 -17 -6 -31 -3 -18 5 -24 3 -19
-5 7 -11 2 -12 -85 -15 -26 -1 -53 -6 -60 -12 -13 -9 -26 -11 -46 -4 -16 5
-59 -2 -70 -12 -7 -5 -18 -8 -25 -5 -7 2 -25 -2 -40 -9 -15 -8 -34 -11 -42 -8
-9 4 -18 0 -22 -9 -3 -9 -13 -14 -23 -12 -9 2 -33 -3 -54 -10 -21 -7 -46 -11
-57 -8 -10 3 -36 -1 -57 -8 -21 -7 -47 -14 -58 -15 -11 -1 -21 -3 -22 -4 -2
-2 -7 -4 -13 -5 -5 -1 -11 -3 -12 -4 -2 -1 -21 -4 -42 -6 -22 -3 -44 -11 -49
-20 -4 -8 -12 -13 -17 -10 -4 3 -27 -2 -51 -10 -32 -12 -44 -12 -50 -4 -5 9
-29 6 -89 -10 -45 -12 -86 -19 -91 -16 -5 4 -9 2 -9 -4 0 -11 -52 -28 -87 -29
-13 0 -23 3 -23 9 0 5 -9 9 -21 9 -14 0 -19 -5 -16 -14 3 -8 -1 -17 -9 -20 -8
-3 -14 1 -14 10 0 11 -5 14 -17 9 -10 -3 -30 -9 -45 -12 -16 -3 -25 -10 -22
-17 3 -6 -1 -3 -8 6 -13 15 -19 15 -84 -2 -79 -22 -95 -24 -74 -9 11 8 2 9
-35 5 -27 -2 -59 -7 -71 -11 -14 -5 -23 -1 -30 13 -7 16 -14 18 -32 11 -19 -7
-21 -12 -12 -29 6 -12 7 -20 1 -20 -5 0 -16 -3 -24 -6 -10 -3 -18 2 -22 16 -7
23 -16 23 -81 4 -19 -5 -24 1 -40 41 -16 44 -19 47 -48 42 -17 -3 -38 -8 -46
-11 -11 -4 -28 23 -65 102 -162 350 -408 769 -644 1096 -50 69 -91 131 -91
136 0 5 33 25 73 46 380 193 711 448 1117 860 163 166 164 166 40 51 -588
-546 -1186 -840 -1940 -954 -166 -25 -673 -25 -850 0 -826 118 -1557 494
-2191 1126 -376 376 -666 782 -919 1289 -307 616 -474 1186 -557 1902 -18 158
-27 804 -13 970 60 709 228 1331 520 1925 176 359 375 662 619 945 62 72 60
70 -43 -30 -362 -352 -702 -845 -924 -1340 -77 -171 -123 -288 -197 -505 -131
-379 -231 -904 -261 -1375 -8 -131 -8 -534 1 -660 6 -95 37 -382 55 -515 11
-82 84 -438 105 -510 8 -27 24 -86 35 -130 31 -113 82 -278 91 -290 7 -10
-600 -10 -628 0 -7 2 -13 15 -13 29 0 53 -6 56 -85 49 l-72 -6 -7 47 c-7 46
-7 46 -46 46 -29 0 -42 5 -50 20 -9 17 -8 20 9 20 11 0 22 4 25 9 10 16 -5 41
-25 41 -23 0 -35 28 -45 102 -6 44 -9 49 -15 28 l-7 -25 -1 25 c-1 14 -8 36
-16 50 -8 14 -14 37 -15 53 0 15 -4 27 -10 27 -5 0 -10 9 -10 20 0 11 -6 20
-14 20 -9 0 -12 8 -9 24 3 15 -4 32 -21 51 -14 15 -26 34 -26 41 0 8 -4 14 -8
14 -5 0 -8 21 -8 47 1 29 -4 48 -12 51 -6 2 -15 21 -18 43 -5 32 -11 39 -30
39 -19 0 -24 7 -30 45 -3 25 -11 45 -16 45 -5 0 -6 9 -3 20 4 11 -1 34 -9 52
-9 17 -16 37 -16 45 0 7 -7 16 -15 19 -8 4 -12 11 -9 16 9 14 -17 29 -37 23
-13 -5 -16 2 -15 35 1 41 11 53 19 23 4 -14 5 -12 6 5 1 20 -12 28 -41 23 -4
0 -10 16 -13 37 -4 20 -9 44 -12 52 -4 8 -7 27 -8 42 -2 15 -17 41 -34 58 -20
20 -31 42 -31 59 0 34 -19 91 -30 91 -13 0 -30 93 -19 105 11 11 12 25 2 24
-24 -4 -33 4 -33 26 0 14 -5 24 -11 22 -6 -1 -14 4 -16 11 -3 6 3 12 12 12 9
0 15 6 12 13 -2 6 -11 11 -21 9 -9 -2 -16 4 -16 13 0 8 8 15 18 15 14 0 15 2
2 10 -10 6 -11 10 -2 10 6 0 12 4 12 9 0 5 -9 7 -20 4 -23 -6 -27 15 -10 48 9
17 7 19 -17 19 -26 1 -27 2 -10 14 17 13 17 15 0 50 -18 34 -48 60 -36 30 3
-7 0 -14 -6 -14 -19 0 -17 60 2 73 8 4 5 9 -9 13 -18 5 -25 22 -44 117 -21
109 -39 147 -67 147 -16 0 -16 5 0 31 10 17 9 22 -11 37 -13 10 -25 33 -29 56
-3 21 -12 40 -19 43 -8 3 -14 14 -14 25 0 10 -4 17 -9 13 -5 -3 -13 21 -16 52
-4 32 -14 73 -21 92 -8 18 -14 46 -14 61 0 16 -7 30 -15 34 -17 6 -21 36 -5
36 6 0 5 8 -2 20 -7 11 -22 20 -33 20 -17 0 -17 2 -5 10 10 6 11 10 3 10 -18
0 -16 20 5 43 16 19 16 20 -4 9 -19 -10 -23 -8 -27 9 -3 12 -1 33 4 47 8 21 7
29 -6 38 -9 7 -19 29 -22 49 -4 24 -12 39 -24 42 -12 3 -20 19 -24 46 -4 22
-14 47 -22 55 -10 10 -13 26 -8 49 3 20 2 33 -5 33 -5 0 -10 7 -10 16 0 8 -5
25 -12 37 -6 12 -11 37 -9 56 2 22 -1 31 -8 27 -7 -4 -11 1 -11 14 0 12 -7 28
-15 36 -17 18 -20 50 -5 59 16 10 12 22 -10 28 -11 3 -23 13 -26 24 -13 41
-28 62 -38 56 -6 -4 -5 1 3 10 11 14 11 21 -3 41 -9 14 -13 32 -10 40 3 9 1
16 -5 16 -6 0 -11 9 -11 20 0 10 -8 24 -17 29 -10 6 -12 11 -5 11 17 0 15 20
-2 20 -19 0 -29 30 -15 46 9 11 8 18 -1 29 -7 9 -10 18 -6 22 3 3 6 1 6 -5 0
-7 5 -12 10 -12 6 0 10 7 10 15 0 8 -4 15 -10 15 -5 0 -13 0 -17 0 -10 0 -31
58 -32 88 -1 12 -5 22 -9 22 -10 0 -33 46 -38 75 -8 48 -11 57 -20 63 -5 4
-10 16 -11 27 -1 11 0 14 3 8 3 -7 12 -13 19 -13 9 0 5 10 -11 28 -45 49 -51
57 -57 79 -3 13 -1 26 4 29 15 9 10 34 -5 28 -10 -4 -16 6 -21 35 -4 23 -12
44 -19 48 -19 12 -29 60 -13 66 9 4 9 6 -1 6 -12 1 -72 120 -72 145 0 7 -6 19
-14 25 -8 7 -13 29 -12 59 1 26 -1 54 -5 62 -4 8 -10 28 -14 43 -5 23 -9 27
-27 21 -21 -6 -21 -6 -4 12 17 17 17 18 1 30 -13 10 -16 20 -11 40 6 24 5 26
-8 15 -13 -11 -16 -11 -16 2 0 8 7 20 15 27 21 17 19 30 -5 30 -22 0 -27 15
-7 24 8 3 6 9 -7 20 -11 9 -21 31 -23 48 -1 18 -4 47 -5 63 -2 17 -5 32 -8 35
-13 13 -29 60 -20 60 15 0 12 30 -5 46 -11 12 -12 20 -4 36 8 15 7 24 -7 39
-12 14 -17 40 -19 103 -2 47 -6 90 -10 97 -4 6 -1 15 6 20 11 7 11 13 -4 39
-10 16 -14 30 -8 30 6 0 6 11 0 32 -14 50 -11 89 9 111 12 15 14 21 5 24 -14
5 -18 49 -5 57 5 3 7 47 5 98 -2 60 1 101 9 116 9 17 9 28 1 41 -8 13 -7 27 4
57 8 21 17 59 19 84 4 41 10 78 14 90 1 3 1 13 0 23 -1 10 6 30 16 45 12 18
13 27 6 30 -17 5 -15 20 9 53 11 16 18 36 15 44 -3 8 0 17 5 21 6 3 9 17 6 30
-2 13 -1 24 2 24 7 0 31 50 31 66 0 6 7 17 15 24 9 7 14 15 11 17 -2 3 3 21
11 41 9 20 17 51 19 67 2 17 12 48 23 70 11 22 22 48 25 58 3 10 11 15 17 11
8 -4 9 0 4 15 -5 15 1 32 18 54 13 18 38 60 55 95 27 54 94 157 188 291 17 24
21 38 14 45 -5 5 -10 15 -10 21 0 5 5 3 10 -5 6 -9 10 -10 10 -3 0 6 3 19 7
28 5 14 2 16 -15 11 -21 -7 -40 8 -23 19 6 3 8 12 5 20 -4 8 -10 13 -14 10 -4
-3 -11 3 -14 12 -4 9 -1 20 5 24 6 3 10 12 8 18 -3 8 -10 8 -24 -2z"/>
<path d="M23153 19797 c-345 -353 -716 -896 -1240 -1816 -51 -90 -93 -165 -93
-167 0 -2 -13 -25 -28 -51 -16 -26 -49 -86 -74 -133 -86 -160 -195 -365 -256
-482 -72 -136 -531 -1054 -620 -1238 -33 -69 -101 -208 -150 -310 -50 -102
-89 -186 -87 -188 2 -2 23 -1 46 3 33 6 54 19 95 60 46 46 70 88 180 311 69
143 137 284 151 314 58 128 660 1331 756 1510 184 346 204 382 447 815 22 40
301 504 330 550 8 13 28 45 44 72 156 258 489 724 609 851 17 17 28 32 25 32
-3 0 -63 -60 -135 -133z"/>
<path d="M20300 19505 c-523 -60 -990 -258 -1410 -598 -116 -94 -271 -238
-312 -289 l-33 -43 66 56 c428 361 1003 587 1579 618 165 9 350 4 503 -15 l59
-7 129 129 c71 71 129 132 129 135 0 4 -28 10 -62 13 l-61 7 -111 -108 -111
-108 103 106 c96 98 102 107 80 112 -41 11 -429 5 -548 -8z"/>
<path d="M20902 19357 l-134 -134 77 -13 77 -13 129 129 c71 71 129 131 129
135 0 5 -112 29 -136 29 -5 0 -69 -60 -142 -133z"/>
<path d="M21061 19326 l-134 -134 54 -11 53 -12 133 133 c73 73 128 135 122
137 -6 2 -73 -57 -148 -130 l-136 -134 130 132 c71 73 127 134 125 136 -3 3
-18 8 -35 11 -28 6 -39 -2 -164 -128z"/>
<path d="M21181 19296 l-133 -133 48 -12 48 -12 133 133 c73 73 128 135 122
137 -6 2 -73 -57 -147 -130 l-137 -134 128 131 c70 72 127 134 127 137 0 23
-39 -8 -159 -125 l-136 -133 135 138 c74 75 128 137 120 137 -9 0 -75 -60
-149 -134z"/>
<path d="M22065 19252 c-36 -20 -212 -27 -233 -9 -10 8 -44 -20 -147 -123 -94
-94 -131 -137 -122 -142 8 -4 43 -10 79 -14 50 -5 80 -2 124 12 54 16 72 31
199 156 77 76 138 138 135 137 -3 0 -18 -7 -35 -17z"/>
<path d="M23473 17657 c-162 -163 -192 -217 -200 -355 l-5 -87 136 140 135
140 1 55 c1 71 21 159 48 204 12 20 20 36 19 36 -2 0 -62 -60 -134 -133z"/>
<path d="M23402 17332 c-130 -124 -133 -128 -126 -162 3 -19 8 -41 10 -49 3
-10 51 31 142 120 l137 134 -138 -140 c-76 -78 -135 -144 -132 -147 3 -3 8
-14 10 -24 10 -43 39 -119 48 -125 5 -3 8 -9 8 -13 -1 -3 -1 -9 -1 -13 0 -4
62 53 138 127 l137 135 -140 -143 c-77 -78 -135 -142 -129 -142 5 0 10 -8 11
-17 1 -10 7 -31 13 -47 l11 -30 125 125 c69 68 130 132 135 141 6 12 0 41 -21
99 -17 45 -34 87 -38 94 -5 10 -40 -17 -117 -88 l-110 -101 108 111 109 110
-21 63 c-12 35 -21 74 -21 87 0 12 -3 23 -7 23 -5 0 -68 -58 -141 -128z"/>
<path d="M23537 16922 c-121 -121 -136 -140 -125 -155 12 -16 27 -3 147 117
117 117 133 138 125 156 -8 18 -22 8 -147 -118z"/>
<path d="M23558 16867 l-138 -132 21 -65 c12 -36 24 -68 28 -72 4 -4 67 52
140 126 l133 133 -22 72 c-11 39 -22 71 -23 71 -1 0 -64 -60 -139 -133z"/>
<path d="M23606 16710 c-98 -96 -135 -138 -131 -149 15 -37 75 -296 99 -421
56 -301 77 -539 77 -870 0 -783 -195 -1515 -568 -2130 -95 -157 -138 -219
-266 -378 l-109 -137 73 70 c226 217 358 376 522 625 304 466 501 1012 586
1620 32 229 32 238 36 565 3 249 0 343 -15 480 -31 286 -58 444 -118 690 -48
192 -27 188 -186 35z"/>
<path d="M18504 16028 c-88 -90 -174 -184 -191 -209 -186 -273 -231 -661 -113
-966 47 -124 98 -201 195 -298 97 -97 636 -533 1150 -930 43 -33 95 -73 115
-90 21 -16 135 -104 254 -195 120 -91 257 -196 304 -233 241 -188 458 -225
682 -115 78 38 100 56 270 226 102 101 160 164 130 138 -64 -53 -174 -110
-245 -126 -27 -6 -84 -11 -126 -11 -177 0 -256 41 -619 318 -540 412 -1289
1001 -1558 1226 -227 189 -333 423 -333 733 0 259 77 493 214 650 21 24 37 44
35 44 -2 0 -76 -73 -164 -162z"/>
<path d="M18216 13578 c4 -7 15 -24 25 -38 9 -14 34 -52 55 -85 21 -33 41 -62
44 -65 3 -3 18 -25 35 -50 125 -189 377 -466 603 -662 480 -415 1038 -667
1622 -733 117 -13 421 -11 511 3 l46 7 -96 86 c-770 693 -1698 1211 -2711
1514 -129 38 -145 41 -134 23z"/>
</g>
</svg>
