<?xml version="1.0" standalone="no"?>
<!DOCTYPE svg PUBLIC "-//W3C//DTD SVG 20010904//EN"
 "http://www.w3.org/TR/2001/REC-SVG-20010904/DTD/svg10.dtd">
<svg version="1.0" xmlns="http://www.w3.org/2000/svg"
 width="4000.000000pt" height="3000.000000pt" viewBox="0 0 4000.000000 3000.000000"
 preserveAspectRatio="xMidYMid meet">
<metadata>
Created by potrace 1.16, written by Peter Selinger 2001-2019
</metadata>
<g transform="translate(0.000000,3000.000000) scale(0.100000,-0.100000)"
fill="#000000" stroke="none">
<path d="M22479 23076 c-2 -2 -74 -6 -159 -9 -113 -4 -331 -28 -810 -91 -360
-48 -1559 -206 -2665 -351 -1105 -146 -2093 -276 -2195 -291 -102 -14 -198
-27 -215 -30 -16 -2 -39 -6 -50 -8 -11 -3 -49 -8 -85 -11 -36 -4 -72 -8 -80
-10 -8 -3 -33 -7 -55 -10 -156 -23 -437 -101 -690 -190 -88 -31 -250 -86 -360
-122 -436 -142 -721 -262 -920 -388 -137 -87 -364 -274 -521 -430 -361 -361
-609 -762 -803 -1302 -89 -250 -142 -478 -178 -763 -22 -181 -25 -732 -5 -905
30 -258 5 -120 592 -3195 715 -3741 861 -4499 890 -4611 134 -522 400 -1052
727 -1447 97 -117 333 -348 453 -445 486 -392 1106 -623 1895 -707 50 -5 166
-21 259 -35 368 -56 683 -75 935 -56 170 13 235 25 391 71 58 17 1428 461
3045 986 3169 1030 3039 985 3294 1138 324 196 551 402 811 741 30 39 67 83
82 99 15 17 34 42 40 58 7 15 16 28 20 28 5 0 8 7 8 15 0 8 5 15 10 15 6 0 10
4 10 9 0 4 21 39 46 77 80 120 264 509 280 588 2 11 10 34 18 51 35 73 138
492 170 695 35 217 45 324 53 558 8 252 -19 711 -47 807 -5 17 -11 50 -14 75
-3 25 -10 72 -16 105 -6 33 -13 76 -16 95 -8 60 -43 261 -60 350 -9 47 -20
112 -24 145 -5 33 -34 204 -65 380 -31 176 -63 361 -71 410 -7 50 -18 110 -24
135 -5 25 -17 88 -25 140 -40 242 -46 278 -55 320 -5 25 -17 88 -25 140 -8 52
-17 106 -19 120 -3 14 -12 66 -21 115 -8 50 -18 104 -21 120 -7 37 -43 248
-51 295 -3 19 -12 69 -20 110 -14 76 -26 147 -38 230 -3 25 -10 59 -15 75 -4
17 -11 50 -14 75 -11 84 -16 115 -25 150 -5 19 -15 73 -21 120 -6 47 -15 99
-20 115 -5 17 -11 48 -14 70 -3 22 -8 60 -11 85 -4 25 -11 59 -16 75 -5 17
-13 62 -19 100 -13 95 -17 119 -34 200 -9 39 -16 81 -16 95 0 14 -6 50 -14 80
-8 30 -17 75 -19 100 -3 25 -12 81 -21 125 -16 82 -22 117 -36 217 -4 31 -10
60 -13 65 -3 4 -8 32 -11 61 -3 29 -7 56 -10 60 -3 4 -7 26 -9 47 -3 22 -8 51
-11 65 -4 14 -8 39 -10 55 -2 17 -6 41 -9 55 -4 14 -8 41 -11 60 -4 31 -19
115 -86 485 -10 61 -22 139 -25 175 -23 240 -75 505 -159 815 -2 6 -6 24 -10
40 -13 50 -68 219 -76 230 -11 16 -60 155 -54 155 2 0 -1 10 -8 23 -6 12 -13
28 -14 35 -1 6 -12 31 -23 55 -12 24 -21 49 -21 55 0 7 -4 12 -10 12 -5 0 -9
3 -8 8 7 31 -243 500 -272 510 -6 2 -8 8 -4 13 3 5 -2 12 -10 15 -9 3 -16 12
-16 20 0 8 -4 14 -10 14 -5 0 -10 6 -10 14 0 7 -11 25 -25 40 -14 15 -25 31
-25 37 0 5 -4 9 -9 9 -5 0 -27 25 -50 55 -23 30 -39 55 -35 55 4 0 -5 10 -20
21 -15 12 -25 24 -22 27 3 3 -3 11 -14 19 -11 8 -20 20 -20 27 0 7 -14 22 -30
35 -17 12 -28 26 -25 31 8 13 -298 316 -415 410 -304 243 -756 475 -1012 520
-35 6 -70 14 -78 17 -8 4 -26 8 -39 9 -13 2 -67 10 -120 18 -136 22 -479 44
-492 32z m881 -2531 c115 -59 203 -185 234 -337 21 -100 20 -149 -3 -234 -20
-74 -36 -111 -216 -479 -65 -132 -145 -298 -180 -370 -34 -71 -115 -238 -180
-370 -65 -132 -148 -303 -185 -380 -37 -77 -137 -282 -222 -455 -85 -173 -210
-430 -279 -570 -68 -140 -229 -466 -356 -723 -167 -335 -233 -478 -233 -502 0
-47 22 -71 315 -330 444 -393 705 -613 950 -800 184 -140 242 -212 318 -397
47 -114 64 -358 33 -492 -37 -156 -113 -294 -212 -385 -70 -64 -125 -96 -217
-128 -62 -21 -85 -24 -167 -20 -118 5 -155 19 -370 138 -371 206 -837 503
-1156 737 -215 157 -238 166 -286 115 -14 -16 -104 -183 -200 -373 -251 -495
-435 -845 -483 -920 -107 -167 -268 -293 -440 -346 -95 -29 -267 -25 -370 9
-225 74 -422 267 -518 509 -49 122 -69 230 -69 373 -1 182 32 323 108 478 50
101 387 646 647 1047 128 197 167 270 167 310 -1 51 -41 112 -152 227 -124
129 -284 303 -394 428 -189 215 -551 663 -634 785 -124 183 -189 403 -177 599
8 125 27 195 83 310 63 128 182 251 294 304 79 37 162 57 239 57 109 -1 267
-55 374 -129 57 -39 339 -301 1145 -1065 144 -136 135 -139 277 74 61 91 180
271 265 400 85 129 258 393 385 585 127 193 253 384 280 425 27 41 172 262
323 490 151 228 331 502 400 608 70 106 200 304 290 440 230 349 283 395 442
388 58 -2 87 -9 130 -31z m-2535 -125 c114 -11 142 -15 275 -36 268 -42 368
-81 466 -178 96 -96 135 -197 135 -350 0 -276 -163 -425 -424 -388 -45 7 -118
19 -162 27 -225 43 -517 56 -741 34 -831 -80 -1572 -526 -2091 -1259 -413
-583 -649 -1277 -718 -2110 -10 -119 -7 -526 5 -656 44 -491 147 -921 322
-1338 437 -1047 1258 -1842 2208 -2140 914 -286 1856 -71 2630 599 641 556
1086 1440 1194 2375 30 255 34 335 31 595 -8 720 -156 1337 -483 2015 -108
223 -137 346 -113 472 22 113 99 221 192 269 60 31 164 32 231 2 54 -25 137
-98 179 -159 88 -129 294 -588 392 -874 102 -301 204 -729 238 -1000 41 -325
52 -507 52 -805 -1 -689 -121 -1337 -360 -1945 -399 -1015 -1112 -1816 -1992
-2237 -274 -131 -637 -242 -951 -292 -320 -51 -759 -43 -1090 20 -949 180
-1805 736 -2455 1594 -598 789 -957 1762 -1056 2860 -13 148 -17 610 -6 760
75 1026 379 1887 928 2631 201 272 534 623 774 813 364 290 747 488 1172 606
121 33 479 94 618 104 134 11 463 6 600 -9z"/>
</g>
</svg>
