<svg xmlns="http://www.w3.org/2000/svg" xmlns:xlink="http://www.w3.org/1999/xlink" width="79" height="80.64" viewBox="0 0 79 80.64">
  <defs>
    <filter id="Trazado_10766" x="0" y="0" width="79" height="80.64" filterUnits="userSpaceOnUse">
      <feOffset dy="3" input="SourceAlpha"/>
      <feGaussianBlur stdDeviation="3" result="blur"/>
      <feFlood flood-color="#231f20" flood-opacity="0.302"/>
      <feComposite operator="in" in2="blur"/>
      <feComposite in="SourceGraphic"/>
    </filter>
  </defs>
  <g id="Componente_41_6" data-name="Componente 41 – 6" transform="translate(9 6)">
    <g transform="matrix(1, 0, 0, 1, -9, -6)" filter="url(#Trazado_10766)" style="mix-blend-mode: multiply;isolation: isolate">
      <path id="Trazado_10766-2" data-name="Trazado 10766" d="M5,0H56a5,5,0,0,1,5,5V57.64a5,5,0,0,1-5,5H5a5,5,0,0,1-5-5V5A5,5,0,0,1,5,0Z" transform="translate(9 6)" fill="#db107c"/>
    </g>
    <path id="ic_thumb_up_24px" d="M1,21H5V9H1ZM23,10a2.006,2.006,0,0,0-2-2H14.69l.95-4.57.03-.32a1.505,1.505,0,0,0-.44-1.06L14.17,1,7.59,7.59A1.955,1.955,0,0,0,7,9V19a2.006,2.006,0,0,0,2,2h9a1.987,1.987,0,0,0,1.84-1.22l3.02-7.05A1.976,1.976,0,0,0,23,12V10.09l-.01-.01Z" transform="translate(42.5 43.32) rotate(180)" fill="#db107c"/>
  </g>
</svg>
