<svg xmlns="http://www.w3.org/2000/svg" width="32" height="35" viewBox="0 0 32 35">
  <g id="Grupo_8731" data-name="Grupo 8731" transform="translate(-781 -540.5)">
    <path id="Trazado_10744" data-name="Trazado 10744" d="M-164.351,97.346l-4.26,6.322a.453.453,0,0,0,.68.589l4.191-3.648a.164.164,0,0,1,.273.136v11.4a.17.17,0,0,1-.3.113l-12.688-15.18a2.1,2.1,0,0,0-1.654-.77h-.453a2.17,2.17,0,0,0-2.153,2.174V114.52a2.175,2.175,0,0,0,2.175,2.174,2.183,2.183,0,0,0,1.858-1.042l4.26-6.321a.453.453,0,0,0-.68-.589l-4.191,3.626a.164.164,0,0,1-.273-.136V100.857a.17.17,0,0,1,.3-.113l12.687,15.18a2.13,2.13,0,0,0,1.654.77h.453a2.175,2.175,0,0,0,2.175-2.174V98.478a2.21,2.21,0,0,0-2.2-2.174A2.183,2.183,0,0,0-164.351,97.346Z" transform="translate(961.71 452.001)" fill="#26232c"/>
    <line id="Línea_186" data-name="Línea 186" y2="34" transform="translate(812.5 541)" fill="none" stroke="#231f20" stroke-linecap="round" stroke-width="1"/>
  </g>
</svg>
