<?xml version="1.0" encoding="UTF-8"?>
<svg id="Capa_1" data-name="Capa 1" xmlns="http://www.w3.org/2000/svg" viewBox="0 0 1080 1080">
  <defs>
    <style>
      .cls-1 {
        fill: #fff;
      }
    </style>
  </defs>
  <path id="coin" d="m1080,541.39c-.75,298.21-243.14,539.37-541.42,538.61C240.41,1079.23-.78,836.85,0,538.65.71,240.42,243.1-.76,541.3,0c298.26.74,539.44,243.16,538.7,541.39h0Z"/>
  <g>
    <path class="cls-1" d="m926.34,316.81c-.68-1.18-1.33-2.34-2.03-3.48-78.96-135.6-224.87-220.29-384.31-219.4-1.37,0-2.76,0-4.14.02-.78.02-1.54.02-2.3.04-243.44,3.42-439.7,201.81-439.7,446.02,0,42.11,5.85,82.85,16.73,121.46l73.77-101.1c15.55-21.65,30.3-42.58,45.56-63.13,3.99-5.38,3.99-9.2.4-14.81-12.2-19.22-16.73-40.09-14.69-63.15,4.47-50.32,53.87-93.87,109.66-86.65,51.17,6.6,91.81,53.91,85.16,108.21-6.86,56.16-56.3,93.97-110.8,86.84-2.85-.38-7.36.86-8.88,2.97-18.65,25.91-36.88,52.11-55.64,78.82l-94.51,129.54c24.12,48.27,56.72,91.57,95.88,127.9l114.43-156.91c.8-.89,1.6-1.96,2.47-3.21l2.72-3.92.15-.19c58.89-84.5,117.89-168.96,177.16-253.2,3.95-5.61,3.55-9.45.53-14.96-11.18-20.38-14.6-41.96-10.36-65.09,9.47-51.82,63.56-88.7,114.66-77.64,55.28,11.94,89.93,65.83,76.45,118.91-13.21,52.01-59.72,82.22-113.25,73.51-5.42-.89-9.43-.8-13.27,4.77-59.61,86.71-119.5,173.3-179.49,259.76l-.23.32-117.3,161.23c45.22,30.45,96.33,52.81,151.25,65.05l76.58-105.24c1.01-.84,2.05-2.03,3.14-3.57,7.05-10.02,14.14-20,21.25-29.98,22.66-31.8,45.52-63.44,68.33-95.11,3.35-4.66,4.24-8.38,1.08-14.11-10.55-19.18-14.88-39.52-11.65-61.82,7.01-48.32,51.28-86.65,98.92-84.48,53.26,2.41,95.29,44.81,96.14,96.95.97,60.43-55.58,109.08-114.22,98.02-7.07-1.35-11.54.08-15.87,6.31-23.15,33.25-46.44,66.4-69.84,99.46l-.57.8-73.81,103.11c5.99.25,12.05.38,18.1.38,246.4,0,446.14-199.72,446.14-446.06,0-81.31-21.78-157.54-59.8-223.2Z"/>
    <path class="cls-1" d="m662.91,388.42c.08-24.66-18.34-43.55-42.58-43.63-36.76-.13-57.2,43.36-33.57,71.76,25.43,30.61,76.03,11.52,76.15-28.12Z"/>
    <path class="cls-1" d="m728.26,710.24c26.73-27.09,8.31-74.14-30.17-74.12-24.73,0-42.9,18.31-42.88,43.19.06,37.87,46.23,58.15,73.05,30.93Z"/>
    <path class="cls-1" d="m355.83,429.39c-.17-24.96-18.21-42.62-43.34-42.45-37.43.25-56.47,47.53-29.65,73.7,27.35,26.67,73.24,6.56,72.99-31.25Z"/>
  </g>
</svg>