<?xml version="1.0" encoding="UTF-8"?>
<svg id="Capa_1" data-name="Capa 1" xmlns="http://www.w3.org/2000/svg" viewBox="0 0 1080 1080">
  <defs>
    <style>
      .cls-1 {
        fill: #fff;
      }
    </style>
  </defs>
  <path id="coin" d="m1063.98,670.08c-71.81,289.36-364.65,465.73-654.08,393.89C120.59,992.15-55.81,699.33,16.03,409.98,87.8,120.59,380.64-55.8,669.99,16.02c289.42,71.82,465.8,364.68,393.99,654.06h0Z"/>
  <path id="symbol" class="cls-1" d="m753.67,407.17c-6.77-72.35-69.16-96.76-147.99-103.86l.25-100.34-61.08-.15-.24,97.69c-16.06-.04-32.47.24-48.78.52l.26-98.34-61.05-.16-.27,100.31c-13.23.24-26.21.45-38.88.43v-.31s-84.25-.24-84.25-.24l-.15,65.23s45.11-.75,44.36.08c24.74.07,32.76,14.45,35.07,26.85l-.28,114.3c0,1.56-.42,160.56-.42,160.56-1.1,7.78-5.71,20.19-23,20.17.78.69-44.4-.12-44.4-.12l-12.32,72.91,79.49.2c14.79.06,29.35.34,43.64.47l-.23,101.48,61.02.16.25-100.41c16.75.39,32.97.56,48.79.59l-.28,99.94,61.08.15.27-101.3c102.7-5.63,174.64-31.32,183.81-127.72,7.4-77.62-29.04-112.36-87.3-126.5,35.46-17.94,57.68-49.65,52.64-102.6h0Zm-86,216.77c-.16,75.84-130,66.88-171.4,66.82l.36-134.45c41.41.11,171.25-11.46,171.04,67.63Zm-27.93-189.77c-.19,69-108.48,60.67-142.96,60.59l.31-121.94c34.48.08,142.82-10.61,142.65,61.35Z"/>
</svg>