<svg id="Componente_47_11" data-name="Componente 47 – 11" xmlns="http://www.w3.org/2000/svg" width="24" height="24" viewBox="0 0 24 24">
  <circle id="Elipse_375" data-name="Elipse 375" cx="12" cy="12" r="12" fill="#61d58c"/>
  <path id="task_alt_FILL0_wght400_GRAD0_opsz24" d="M89.5-861a9.25,9.25,0,0,1-3.705-.748,9.593,9.593,0,0,1-3.016-2.031,9.594,9.594,0,0,1-2.031-3.016A9.251,9.251,0,0,1,80-870.5a9.251,9.251,0,0,1,.748-3.705,9.594,9.594,0,0,1,2.031-3.016,9.593,9.593,0,0,1,3.016-2.031A9.25,9.25,0,0,1,89.5-880a9.418,9.418,0,0,1,2.221.261,9.765,9.765,0,0,1,2.078.76.9.9,0,0,1,.463.57.8.8,0,0,1-.131.712,1.058,1.058,0,0,1-.629.427,1.1,1.1,0,0,1-.772-.1,7.936,7.936,0,0,0-1.579-.546,7.285,7.285,0,0,0-1.651-.19,7.326,7.326,0,0,0-5.379,2.221A7.326,7.326,0,0,0,81.9-870.5a7.326,7.326,0,0,0,2.221,5.379A7.326,7.326,0,0,0,89.5-862.9a7.326,7.326,0,0,0,5.379-2.221A7.326,7.326,0,0,0,97.1-870.5q0-.19-.012-.368t-.036-.368a1.263,1.263,0,0,1,.154-.772.981.981,0,0,1,.606-.487.86.86,0,0,1,.713.071.728.728,0,0,1,.38.57q.047.332.071.665T99-870.5a9.251,9.251,0,0,1-.748,3.705,9.594,9.594,0,0,1-2.031,3.016,9.593,9.593,0,0,1-3.016,2.031A9.25,9.25,0,0,1,89.5-861Zm-1.33-7.79,8.835-8.859a.928.928,0,0,1,.653-.273.884.884,0,0,1,.677.273.9.9,0,0,1,.261.665.9.9,0,0,1-.261.665l-9.5,9.524a.911.911,0,0,1-.665.285.911.911,0,0,1-.665-.285L84.8-869.5a.9.9,0,0,1-.261-.665.9.9,0,0,1,.261-.665.9.9,0,0,1,.665-.261.9.9,0,0,1,.665.261Z" transform="translate(-78 882.757)" fill="#8a5fa4"/>
</svg>
