<svg xmlns="http://www.w3.org/2000/svg" width="30" height="30" viewBox="0 0 30 30">
  <path id="apps_FILL0_wght400_GRAD0_opsz24" d="M163.75-770a3.611,3.611,0,0,1-2.648-1.1,3.611,3.611,0,0,1-1.1-2.648,3.611,3.611,0,0,1,1.1-2.648,3.611,3.611,0,0,1,2.648-1.1,3.611,3.611,0,0,1,2.648,1.1,3.611,3.611,0,0,1,1.1,2.648,3.611,3.611,0,0,1-1.1,2.648A3.611,3.611,0,0,1,163.75-770ZM175-770a3.611,3.611,0,0,1-2.648-1.1,3.611,3.611,0,0,1-1.1-2.648,3.611,3.611,0,0,1,1.1-2.648A3.611,3.611,0,0,1,175-777.5a3.611,3.611,0,0,1,2.648,1.1,3.611,3.611,0,0,1,1.1,2.648,3.611,3.611,0,0,1-1.1,2.648A3.611,3.611,0,0,1,175-770Zm11.25,0a3.611,3.611,0,0,1-2.648-1.1,3.611,3.611,0,0,1-1.1-2.648,3.611,3.611,0,0,1,1.1-2.648,3.611,3.611,0,0,1,2.648-1.1,3.611,3.611,0,0,1,2.648,1.1,3.611,3.611,0,0,1,1.1,2.648,3.611,3.611,0,0,1-1.1,2.648A3.611,3.611,0,0,1,186.25-770Zm-22.5-11.25a3.611,3.611,0,0,1-2.648-1.1A3.611,3.611,0,0,1,160-785a3.611,3.611,0,0,1,1.1-2.648,3.611,3.611,0,0,1,2.648-1.1,3.611,3.611,0,0,1,2.648,1.1A3.611,3.611,0,0,1,167.5-785a3.611,3.611,0,0,1-1.1,2.648A3.611,3.611,0,0,1,163.75-781.25Zm11.25,0a3.611,3.611,0,0,1-2.648-1.1,3.611,3.611,0,0,1-1.1-2.648,3.611,3.611,0,0,1,1.1-2.648,3.611,3.611,0,0,1,2.648-1.1,3.611,3.611,0,0,1,2.648,1.1,3.611,3.611,0,0,1,1.1,2.648,3.611,3.611,0,0,1-1.1,2.648A3.611,3.611,0,0,1,175-781.25Zm11.25,0a3.611,3.611,0,0,1-2.648-1.1A3.611,3.611,0,0,1,182.5-785a3.611,3.611,0,0,1,1.1-2.648,3.611,3.611,0,0,1,2.648-1.1,3.611,3.611,0,0,1,2.648,1.1A3.611,3.611,0,0,1,190-785a3.611,3.611,0,0,1-1.1,2.648A3.611,3.611,0,0,1,186.25-781.25Zm-22.5-11.25a3.611,3.611,0,0,1-2.648-1.1,3.611,3.611,0,0,1-1.1-2.648,3.611,3.611,0,0,1,1.1-2.648,3.611,3.611,0,0,1,2.648-1.1,3.611,3.611,0,0,1,2.648,1.1,3.611,3.611,0,0,1,1.1,2.648,3.611,3.611,0,0,1-1.1,2.648A3.611,3.611,0,0,1,163.75-792.5Zm11.25,0a3.611,3.611,0,0,1-2.648-1.1,3.611,3.611,0,0,1-1.1-2.648,3.611,3.611,0,0,1,1.1-2.648A3.611,3.611,0,0,1,175-800a3.611,3.611,0,0,1,2.648,1.1,3.611,3.611,0,0,1,1.1,2.648,3.611,3.611,0,0,1-1.1,2.648A3.611,3.611,0,0,1,175-792.5Zm11.25,0a3.611,3.611,0,0,1-2.648-1.1,3.611,3.611,0,0,1-1.1-2.648,3.611,3.611,0,0,1,1.1-2.648,3.611,3.611,0,0,1,2.648-1.1,3.611,3.611,0,0,1,2.648,1.1,3.611,3.611,0,0,1,1.1,2.648,3.611,3.611,0,0,1-1.1,2.648A3.611,3.611,0,0,1,186.25-792.5Z" transform="translate(-160 800)" fill="#fafafa"/>
</svg>
