<svg id="Componente_71_1" data-name="Componente 71 – 1" xmlns="http://www.w3.org/2000/svg" width="47" height="47" viewBox="0 0 47 47">
  <circle id="Elipse_404" data-name="Elipse 404" cx="23.5" cy="23.5" r="23.5" fill="#eee6f1"/>
  <path id="ic_thumb_down_24px" d="M15,3H6A1.987,1.987,0,0,0,4.16,4.22L1.14,11.27A1.976,1.976,0,0,0,1,12v1.91l.01.01L1,14a2.006,2.006,0,0,0,2,2H9.31l-.95,4.57-.03.32a1.505,1.505,0,0,0,.44,1.06L9.83,23l6.59-6.59A1.987,1.987,0,0,0,17,15V5A2.006,2.006,0,0,0,15,3Zm4,0V15h4V3Z" transform="translate(12 11)" fill="#dc7aab"/>
</svg>
