<svg xmlns="http://www.w3.org/2000/svg" width="31.996" height="23.27" viewBox="0 0 31.996 23.27">
  <path id="toll_FILL0_wght400_GRAD0_opsz24" d="M60.361-776.73a11.229,11.229,0,0,1-8.254-3.381,11.229,11.229,0,0,1-3.381-8.253,11.229,11.229,0,0,1,3.381-8.254A11.229,11.229,0,0,1,60.361-800a11.229,11.229,0,0,1,8.254,3.381A11.229,11.229,0,0,1,72-788.365a11.229,11.229,0,0,1-3.381,8.253A11.229,11.229,0,0,1,60.361-776.73Zm-13.635-1.091a11.471,11.471,0,0,1-4.89-4.254A11.332,11.332,0,0,1,40-788.365a11.332,11.332,0,0,1,1.836-6.29,11.472,11.472,0,0,1,4.89-4.254,1.311,1.311,0,0,1,1.382.055,1.526,1.526,0,0,1,.618,1.363,1.242,1.242,0,0,1-.236.709,1.568,1.568,0,0,1-.6.527,8.341,8.341,0,0,0-3.636,3.181,8.63,8.63,0,0,0-1.345,4.709,8.63,8.63,0,0,0,1.345,4.708,8.342,8.342,0,0,0,3.636,3.181,1.626,1.626,0,0,1,.6.509,1.213,1.213,0,0,1,.236.727,1.535,1.535,0,0,1-.618,1.345A1.286,1.286,0,0,1,46.726-777.821ZM60.361-788.365Zm0,8.726a8.415,8.415,0,0,0,6.181-2.545,8.415,8.415,0,0,0,2.545-6.181,8.415,8.415,0,0,0-2.545-6.181,8.415,8.415,0,0,0-6.181-2.545,8.415,8.415,0,0,0-6.181,2.545,8.415,8.415,0,0,0-2.545,6.181,8.415,8.415,0,0,0,2.545,6.181A8.415,8.415,0,0,0,60.361-779.639Z" transform="translate(-40 800)" fill="#fff"/>
</svg>
