<svg xmlns="http://www.w3.org/2000/svg" width="36.591" height="37.063" viewBox="0 0 36.591 37.063">
  <path id="settings_b_roll_FILL0_wght400_GRAD0_opsz24" d="M119.5-851.277l-2.641,2.687a.889.889,0,0,0-.278.649.889.889,0,0,0,.278.649.889.889,0,0,0,.649.278.889.889,0,0,0,.649-.278l3.614-3.614a1.778,1.778,0,0,0,.556-1.3,1.778,1.778,0,0,0-.556-1.3l-3.614-3.614a.889.889,0,0,0-.649-.278.889.889,0,0,0-.649.278.889.889,0,0,0-.278.649.889.889,0,0,0,.278.649l2.687,2.687h-6.671a.889.889,0,0,0-.649.278.889.889,0,0,0-.278.649.889.889,0,0,0,.278.649.889.889,0,0,0,.649.278Zm-1.992,8.339a8.93,8.93,0,0,1-6.555-2.71,8.93,8.93,0,0,1-2.71-6.555,8.93,8.93,0,0,1,2.71-6.555,8.93,8.93,0,0,1,6.555-2.71,8.93,8.93,0,0,1,6.555,2.71,8.93,8.93,0,0,1,2.71,6.555,8.93,8.93,0,0,1-2.71,6.555A8.93,8.93,0,0,1,117.507-842.937ZM108.241-861.469Zm.185,18.531h-3.66a1.731,1.731,0,0,1-1.2-.463,1.846,1.846,0,0,1-.6-1.158l-.556-4.309a7.029,7.029,0,0,1-1.135-.556q-.533-.324-1.042-.695L96.2-848.451a1.8,1.8,0,0,1-1.3.07,1.822,1.822,0,0,1-1.019-.811l-3.428-5.976a1.741,1.741,0,0,1-.232-1.3,1.779,1.779,0,0,1,.695-1.112l3.475-2.641a4.424,4.424,0,0,1-.046-.625v-1.251a4.424,4.424,0,0,1,.046-.625l-3.475-2.641a1.779,1.779,0,0,1-.695-1.112,1.741,1.741,0,0,1,.232-1.3l3.428-5.976a1.822,1.822,0,0,1,1.019-.811,1.8,1.8,0,0,1,1.3.07l4.031,1.668a12.643,12.643,0,0,1,1.066-.695,9.33,9.33,0,0,1,1.112-.556l.556-4.309a1.846,1.846,0,0,1,.6-1.158,1.731,1.731,0,0,1,1.2-.463h6.949a1.731,1.731,0,0,1,1.2.463,1.847,1.847,0,0,1,.6,1.158l.556,4.309a7.033,7.033,0,0,1,1.135.556q.533.324,1.042.695l4.031-1.668a1.8,1.8,0,0,1,1.3-.07,1.822,1.822,0,0,1,1.019.811l3.428,5.976a1.741,1.741,0,0,1,.232,1.3,1.779,1.779,0,0,1-.695,1.112l-2.131,1.621a15.18,15.18,0,0,0-2.085-.857,11.593,11.593,0,0,0-2.27-.487L122-867.306l-1.807-3.15-4.586,1.946a10.29,10.29,0,0,0-2.247-1.784,10.386,10.386,0,0,0-2.664-1.089l-.6-4.911h-3.66l-.649,4.911a10.386,10.386,0,0,0-2.664,1.089,11.074,11.074,0,0,0-2.247,1.737l-4.586-1.9-1.807,3.15,3.984,2.965a7.538,7.538,0,0,0-.324,1.39,11.231,11.231,0,0,0-.093,1.482,10.86,10.86,0,0,0,.093,1.436,7.54,7.54,0,0,0,.324,1.39l-3.984,3.011,1.807,3.15,4.586-1.946a12.245,12.245,0,0,0,1.691,1.413,9.575,9.575,0,0,0,1.969,1.042,12.484,12.484,0,0,0,1.089,4.957A13.611,13.611,0,0,0,108.427-842.937Zm-3.382-12.926a13.682,13.682,0,0,1,.672-1.784,13.057,13.057,0,0,1,.9-1.645,2.484,2.484,0,0,1-.788-.95,2.8,2.8,0,0,1-.278-1.228,2.681,2.681,0,0,1,.811-1.969,2.68,2.68,0,0,1,1.969-.811,2.763,2.763,0,0,1,1.251.3,2.638,2.638,0,0,1,.973.811,13.929,13.929,0,0,1,1.621-.9,9.513,9.513,0,0,1,1.76-.625,6.473,6.473,0,0,0-2.316-2.386,6.2,6.2,0,0,0-3.289-.9,6.227,6.227,0,0,0-4.61,1.9,6.288,6.288,0,0,0-1.876,4.586,6.491,6.491,0,0,0,.857,3.266A6.082,6.082,0,0,0,105.045-855.863Z" transform="translate(-90.182 880)" fill="#fff"/>
</svg>
