<svg xmlns="http://www.w3.org/2000/svg" width="37" height="37" viewBox="0 0 37 37">
  <g id="Grupo_8707" data-name="Grupo 8707" transform="translate(14284.795 -3770.001)">
    <circle id="Elipse_399" data-name="Elipse 399" cx="18.5" cy="18.5" r="18.5" transform="translate(-14284.795 3770.001)" fill="#fff"/>
    <g id="Grupo_8705" data-name="Grupo 8705" transform="translate(-1538.237 4762.073)">
      <path id="Trazado_10775" data-name="Trazado 10775" d="M9.974,14.473l.03.015.034,0,14.081-.851-1.252,2.251-14.208.859L.219,12.571l1.275-2.292,8.479,4.195ZM12.6,4.824l-.455-2.152L13.361.412l1.647,5.5ZM10.552,9.468,5.146,9.84,1,7.818,2.279,5.512l8.272,3.957Z" transform="translate(-12740.594 -981.985)" fill="#2c3034" stroke="#fdbf1e" stroke-width="0.317"/>
      <path id="Trazado_10776" data-name="Trazado 10776" d="M24.63,13.411l-14.307.866L1.661,10.02l9.38-.567L2.513,5.263,6.7,1.73l8.685,4.255L13.684,0l8.3,4.055,2.647,9.356Z" transform="translate(-12740.882 -981.903)" fill="#fdbf1c"/>
    </g>
  </g>
</svg>
