<?xml version="1.0" standalone="no"?>
<!DOCTYPE svg PUBLIC "-//W3C//DTD SVG 20010904//EN"
 "http://www.w3.org/TR/2001/REC-SVG-20010904/DTD/svg10.dtd">
<svg version="1.0" xmlns="http://www.w3.org/2000/svg"
 width="1123.000000pt" height="1099.000000pt" viewBox="0 0 1123.000000 1099.000000"
 preserveAspectRatio="xMidYMid meet">
<metadata>
Created by potrace 1.16, written by Peter Selinger 2001-2019
</metadata>
<g transform="translate(0.000000,1099.000000) scale(0.100000,-0.100000)"
fill="#000000" stroke="none">
<path d="M5360 9474 c-611 -44 -1204 -221 -1715 -512 -679 -387 -1247 -987
-1598 -1688 -160 -320 -285 -695 -351 -1054 -49 -267 -60 -403 -60 -725 0
-226 4 -336 17 -445 96 -776 377 -1453 853 -2050 138 -173 441 -476 614 -614
140 -112 386 -280 525 -358 463 -262 969 -426 1525 -495 204 -25 686 -25 890
0 776 96 1453 377 2050 853 173 138 476 441 614 614 112 140 280 386 358 525
262 463 426 969 495 1525 25 204 25 686 0 890 -96 776 -377 1453 -853 2050
-138 173 -441 476 -614 614 -140 112 -386 280 -525 358 -460 261 -974 428
-1515 493 -129 16 -586 28 -710 19z m208 -1639 l-3 -1263 -25 -27 c-33 -36
-42 -40 -451 -218 -195 -85 -611 -267 -925 -405 -681 -299 -673 -296 -680
-279 -2 7 462 797 1033 1756 875 1473 1038 1740 1045 1721 4 -12 7 -591 6
-1285z m1215 -461 c577 -960 1047 -1748 1044 -1751 -3 -3 -23 1 -44 7 -56 19
-1912 834 -2002 880 -21 10 -46 35 -59 58 l-22 40 0 1256 c0 1190 1 1256 18
1256 12 -1 320 -505 1065 -1746z m-1213 -2099 c0 -613 -2 -1115 -4 -1115 -12
0 -2168 1268 -2168 1274 1 8 2144 953 2165 955 4 1 7 -501 7 -1114z m1290 611
c558 -245 1015 -449 1014 -453 0 -4 -475 -286 -1055 -625 -580 -339 -1066
-624 -1081 -633 l-28 -16 0 1115 0 1115 68 -29 c37 -16 524 -229 1082 -474z
m-2680 -1356 c607 -356 980 -575 1264 -744 38 -23 80 -56 95 -75 l26 -34 3
-875 c1 -537 -1 -872 -7 -870 -7 2 -2041 2872 -2107 2973 -16 25 -11 50 10 42
6 -3 329 -190 716 -417z m3657 407 c-3 -7 -481 -687 -1063 -1511 -719 -1019
-1060 -1493 -1065 -1484 -5 7 -9 395 -9 861 0 911 -1 886 51 933 13 12 296
181 629 376 333 196 790 464 1015 596 226 133 418 241 429 241 11 1 16 -4 13
-12z"/>
</g>
</svg>
