<svg id="Capa_1" data-name="Capa 1" xmlns="http://www.w3.org/2000/svg" viewBox="0 0 1123 1099"><circle cx="561.5" cy="549.5" r="398" fill="#21201e"/><path d="M762.16337,537.48553c-4.696-1.50777-9.397-2.999-13.82972-4.41282.16182-1.6562.03112-2.32964.27635-2.52041,2.93461-2.287,5.914-4.51737,8.9028-6.73374,22.54892-16.72108,36.32761-38.53837,40.12674-66.71254,7.82169-58.00268-18.39-102.76536-73.28011-122.61742-14.46021-5.22971-29.71709-8.42636-44.7885-11.73939-11.77083-2.58732-23.81924-3.90961-36.40915-5.8988-.36908-34.66548-.73007-68.5648-1.1004-103.35041-22.20162.64481-42.14642,1.22364-63.02606,1.83017-.06785,33.55014-.13444,66.153-.20291,100.08343-17.47263.49232-33.53863.94543-50.33035,1.41845-.51162-34.70594-1.0002-67.79053-1.51-102.30353-21.43607.37966-41.30182.73163-62.15532,1.10133-.00934,34.83354-.01805,67.971-.028,103.745-43.56923.43225-85.44491.848-128.04755,1.27094.06846,23.02039.13133,44.365.19792,66.74957,17.46392.16182,33.32266-.21722,49.12166.57945,23.17692,1.16918,33.79444,12.35962,33.99361,35.72388q1.153,134.91495,1.87653,269.83333c.12262,20.93628-8.54928,29.50081-30.0395,30.07-13.00193.34418-26.0132.31462-39.99105.46337-3.85763,25.33852-7.5466,49.56481-11.44531,75.16878,43.502-.06349,84.99491-.12386,127.80481-.18641.2639,35.93425.516,70.25648.77551,105.545,22.29374-.12448,42.25721-.23557,63.48291-.35383-.14689-35.5605-.28755-69.54757-.43257-104.62447,17.14711.118,32.89321.22656,50.18721.34544.44314,35.08467.87136,68.96095,1.3089,103.60217,21.611-.02676,41.60867-.052,62.825-.07842.14813-35.3131.29191-69.753.44-105.07353,6.2881-.71265,11.38743-.89968,16.31683-1.91388,29.73266-6.11632,60.20349-10.00259,88.94964-19.23651,42.16323-13.54342,70.04611-43.26954,78.9651-87.46615A239.18582,239.18582,0,0,0,835.718,631.2432C833.33479,583.085,808.11826,552.24107,762.16337,537.48553ZM530.25287,388.05668c35.81724,3.586,69.34467,5.59475,102.37293,10.78059,18.33154,2.87828,33.98427,13.56053,41.99331,31.95618,13.75255,31.58741-.22033,62.77866-33.90336,76.07841-25.8271,10.198-79.99206,15.00419-109.55791,9.29056C530.87029,475.44161,530.58025,434.41021,530.25287,388.05668Zm180.181,266.54861c-.70518,25.078-15.58987,40.25246-36.84918,50.40753-29.99095,14.3264-62.41113,15.99568-94.77218,17.40572-14.8349.64637-29.71959.15965-45.64618.18859-.427-46.94606-.83962-92.24369-1.27032-139.51059,50.49405-1.52706,100.17213-6.55574,146.83157,16.33083C701.236,610.46781,711.12971,629.89851,710.43386,654.60529Z" fill="#fff"/></svg>