<svg id="Capa_1" data-name="Capa 1" xmlns="http://www.w3.org/2000/svg" viewBox="0 0 1123 1099"><circle cx="561.5" cy="549.5" r="398" fill="#232019"/><path d="M572.896,186.8404c69.72474,115.98842,139.44952,231.97686,210.63784,350.4-5.45215-1.79592-8.38-2.50341-11.09672-3.69288-64.76823-28.35743-129.5557-56.67238-194.149-85.42367-3.50773-1.56132-7.62479-6.83716-7.64454-10.40505-.45483-82.202-.38187-164.40692-.3864-246.6113a36.637,36.637,0,0,1,.39305-3.8456Q571.77309,187.05114,572.896,186.8404Z" fill="#fff"/><path d="M347.84988,534.08245C416.63686,418.45024,485.42382,302.818,555.80848,184.5c.64851,5.47788,1.19873,7.96,1.199,10.44214.01,79.32719-.21386,158.65526.17172,237.98039.04554,9.37311-3.11678,13.534-11.44824,17.13512-61.94112,26.7727-123.65592,54.06892-185.45134,81.17895-3.52237,1.54528-7.129,2.89854-10.69635,4.34116Q348.71658,534.83013,347.84988,534.08245Z" fill="#fff"/><path d="M556.51867,460.13414V682.89365c-72.774-42.58241-144.22173-84.38877-217.761-127.41893C412.00134,523.407,483.338,492.17425,556.51867,460.13414Z" fill="#fff"/><path d="M571.24444,460.35753c72.30845,31.69492,143.91473,63.082,217.27054,95.236-73.23153,42.83246-144.56011,84.552-217.27054,127.07967Z" fill="#fff"/><path d="M345.66394,603.97177q36.69567,21.47166,73.38895,42.94735c43.255,25.36376,86.57382,50.62124,129.6045,76.36024,3.77781,2.25981,7.97891,7.72057,8.01758,11.73285.52814,54.81256.36008,109.6317.34029,164.44928-.00046,1.27974-.26828,2.55935-.77122,7.05707C484.29013,804.71573,414.02332,705.29992,343.75652,605.88405Z" fill="#fff"/><path d="M783.8557,605.25471c-70.424,99.69631-140.848,199.39262-212.817,301.27611-.46447-4.33751-.78182-5.92195-.78244-7.50645-.02109-54.415-.12215-108.83081.22923-163.24361.02448-3.79287,2.40765-9.30227,5.42558-11.08969q101.33457-60.0156,203.1195-119.27088a35.89847,35.89847,0,0,1,3.706-1.65577Z" fill="#fff"/></svg>