<?xml version="1.0" standalone="no"?>
<!DOCTYPE svg PUBLIC "-//W3C//DTD SVG 20010904//EN"
 "http://www.w3.org/TR/2001/REC-SVG-20010904/DTD/svg10.dtd">
<svg version="1.0" xmlns="http://www.w3.org/2000/svg"
 width="1123.000000pt" height="1099.000000pt" viewBox="0 0 1123.000000 1099.000000"
 preserveAspectRatio="xMidYMid meet">
<metadata>
Created by potrace 1.16, written by Peter Selinger 2001-2019
</metadata>
<g transform="translate(0.000000,1099.000000) scale(0.100000,-0.100000)"
fill="#000000" stroke="none">
<path d="M5360 9474 c-611 -44 -1204 -221 -1715 -512 -679 -387 -1247 -987
-1598 -1688 -160 -320 -285 -695 -351 -1054 -49 -267 -60 -403 -60 -725 0
-226 4 -336 17 -445 96 -776 377 -1453 853 -2050 138 -173 441 -476 614 -614
140 -112 386 -280 525 -358 463 -262 969 -426 1525 -495 204 -25 686 -25 890
0 776 96 1453 377 2050 853 173 138 476 441 614 614 112 140 280 386 358 525
262 463 426 969 495 1525 25 204 25 686 0 890 -96 776 -377 1453 -853 2050
-138 173 -441 476 -614 614 -140 112 -386 280 -525 358 -460 261 -974 428
-1515 493 -129 16 -586 28 -710 19z m680 -159 c1233 -139 2314 -856 2925
-1939 504 -894 627 -1962 340 -2951 -267 -918 -872 -1710 -1689 -2210 -752
-460 -1653 -647 -2535 -524 -1042 144 -1984 716 -2599 1579 -711 996 -901
2290 -509 3455 198 586 520 1095 968 1530 648 628 1490 1006 2394 1075 161 12
538 4 705 -15z"/>
<path d="M5360 9033 c-1172 -85 -2233 -753 -2824 -1777 -233 -403 -378 -844
-443 -1341 -25 -193 -25 -653 0 -840 32 -240 102 -545 123 -536 7 3 925 1287
957 1338 4 6 -4 29 -19 50 -72 105 -122 254 -131 387 -22 336 181 653 494 774
110 43 196 56 322 49 321 -16 592 -223 697 -532 36 -104 45 -301 20 -409 -70
-300 -299 -525 -600 -591 -61 -14 -107 -17 -200 -13 -115 5 -122 5 -137 -16
-9 -11 -278 -389 -599 -839 l-582 -818 32 -62 c120 -229 297 -488 474 -692
121 -140 271 -288 285 -283 6 1 539 763 1186 1691 l1175 1688 -40 82 c-58 121
-81 220 -81 352 0 437 336 776 770 775 142 0 226 -20 347 -80 161 -79 291
-213 364 -374 86 -188 91 -411 14 -602 -77 -193 -198 -321 -389 -414 -156 -76
-302 -96 -473 -66 l-74 13 -23 -31 c-12 -17 -537 -769 -1165 -1671 -628 -902
-1153 -1654 -1166 -1672 l-23 -31 132 -80 c301 -182 605 -311 938 -397 105
-27 136 -32 146 -22 6 6 313 436 682 955 l670 942 -44 93 c-66 136 -80 198
-80 352 0 108 4 143 24 205 84 272 280 466 547 541 112 32 287 32 397 1 280
-80 488 -291 557 -566 24 -95 26 -249 5 -348 -60 -284 -279 -514 -564 -590
-88 -24 -274 -28 -355 -9 -40 10 -51 9 -57 -1 -5 -7 -271 -382 -593 -833 -321
-451 -582 -824 -579 -829 7 -11 390 -1 518 14 817 94 1553 447 2125 1020 572
571 923 1304 1022 2135 20 165 16 626 -6 790 -110 823 -452 1523 -1020 2090
-672 670 -1578 1042 -2520 1033 -105 -1 -211 -3 -236 -5z"/>
<path d="M6153 7035 c-174 -47 -287 -226 -253 -400 22 -114 84 -195 192 -252
47 -25 64 -28 148 -28 84 0 102 3 151 28 67 32 142 109 171 175 32 71 36 182
9 254 -44 114 -130 192 -246 223 -71 18 -103 18 -172 0z"/>
<path d="M3653 6681 c-74 -35 -132 -91 -170 -163 -25 -48 -28 -63 -28 -153 0
-86 3 -106 24 -145 40 -76 86 -125 153 -160 54 -29 75 -35 148 -38 106 -5 176
19 247 83 155 139 156 380 2 519 -101 91 -255 114 -376 57z"/>
<path d="M6766 4714 c-243 -77 -328 -376 -160 -563 88 -98 229 -141 350 -107
312 90 351 509 60 651 -71 35 -176 43 -250 19z"/>
</g>
</svg>
