<svg id="Capa_1" data-name="Capa 1" xmlns="http://www.w3.org/2000/svg" viewBox="0 0 1123 1099"><circle cx="561.5" cy="549.5" r="398" fill="#232019"/><path d="M561.65937,165.4232C774.79356,165.20191,947.53514,339.83551,945.487,553.311,943.49031,761.41467,773.82748,934.984,558.39618,933.389c-210.54633-1.55881-381.487-172.60509-380.92373-385.056C178.04078,333.97687,352.40175,164.86641,561.65937,165.4232ZM665.66776,735.657q-55.90691,78.47323-111.65427,156.73662c-2.47457,3.4747-4.85569,7.016-7.26953,10.53362-.05567.08113.00126.25552.03561.37808a2.68091,2.68091,0,0,0,.16494.37273C689.91107,910.92723,836.44616,825.7,893.58825,673.89972c56.77877-150.8352,4.34162-320.71349-127.03546-413.87881-131.0763-92.95207-308.54452-86.34183-431.76323,16.64891C206.43827,383.95063,188.12266,541.15926,220.8577,647.464q49.07469-68.97274,97.6047-137.18c-25.55776-34.49644-18.58008-76.56544,5.23221-101.27132A77.4692,77.4692,0,0,1,454.64384,482.2328a75.98256,75.98256,0,0,1-27.96749,41.85973c-18.74284,14.29591-39.96362,18.38856-62.95066,14.4161-.96722,1.27873-1.818,2.34716-2.60955,3.458q-57.141,80.18811-114.24927,160.3994c-3.91291,5.50046-3.984,3.48718-.74466,9.75239a354.9576,354.9576,0,0,0,68.57539,92.21706c2.65474,2.57687,5.397,5.06367,8.37111,7.84732Q441.622,641.96384,559.61,472.55649c-22.5025-35.1992-13.6337-76.77247,12.10522-100.336a77.51155,77.51155,0,0,1,126.51139,79.95317,75.45976,75.45976,0,0,1-29.07141,40.15151c-20.2735,14.33734-42.65562,17.55141-66.53091,11.57122Q483.705,674.4577,364.92764,844.81551a351.717,351.717,0,0,0,121.29043,51.34916q68.3578-96.07513,136.23041-191.46827c-23.02489-35.67656-14.13023-77.06758,11.6979-100.7621a77.491,77.491,0,0,1,125.33248,83.41059,75.18437,75.18437,0,0,1-31.98225,39.39254C708.31327,738.61257,687.63226,741.12033,665.66776,735.657Zm-76.608-306.29971a35.1951,35.1951,0,0,0,70.38959.0266,35.19517,35.19517,0,1,0-70.38959-.0266Zm-174.2018,33.36827a35.3257,35.3257,0,0,0-35.07264-35.47264c-19.22262-.1003-35.37227,16.01654-35.36368,35.29186a35.21863,35.21863,0,0,0,70.43632.18078ZM721.79441,661.03794a35.20645,35.20645,0,1,0-35.37122,35.07477A35.18566,35.18566,0,0,0,721.79441,661.03794Z" fill="#fff"/></svg>