<svg xmlns="http://www.w3.org/2000/svg" width="30.771" height="30.772" viewBox="0 0 30.771 30.772">
  <path id="Trazado_10741" data-name="Trazado 10741" d="M1452.24,6329.027a47.322,47.322,0,0,1,6.142.17,7.926,7.926,0,0,1,2.9.513,5.991,5.991,0,0,1,2.9,2.9,7.911,7.911,0,0,1,.513,2.9c0,1.536.17,2.047.17,6.142a47.014,47.014,0,0,1-.17,6.142,7.9,7.9,0,0,1-.513,2.9,5.986,5.986,0,0,1-2.9,2.9,7.9,7.9,0,0,1-2.9.512c-1.535,0-2.048.171-6.142.171a46.966,46.966,0,0,1-6.141-.171,7.905,7.905,0,0,1-2.9-.512,5.991,5.991,0,0,1-2.9-2.9,7.924,7.924,0,0,1-.512-2.9c0-1.536-.171-2.048-.171-6.142a47.141,47.141,0,0,1,.171-6.142,7.931,7.931,0,0,1,.512-2.9,6.131,6.131,0,0,1,1.195-1.706,2.874,2.874,0,0,1,1.706-1.194,7.926,7.926,0,0,1,2.9-.513,47.309,47.309,0,0,1,6.141-.17m0-2.729a50.54,50.54,0,0,0-6.313.17,10.529,10.529,0,0,0-3.752.682,7.161,7.161,0,0,0-4.437,4.438,7.759,7.759,0,0,0-.682,3.751,116.909,116.909,0,0,0,0,12.625,10.539,10.539,0,0,0,.683,3.754,7.16,7.16,0,0,0,4.436,4.436,10.531,10.531,0,0,0,3.753.683,117.3,117.3,0,0,0,12.623,0,10.523,10.523,0,0,0,3.754-.684,7.158,7.158,0,0,0,4.436-4.435,10.543,10.543,0,0,0,.682-3.754c0-1.7.17-2.217.17-6.31a50.5,50.5,0,0,0-.171-6.313,10.528,10.528,0,0,0-.683-3.754,7.163,7.163,0,0,0-4.435-4.435,10.537,10.537,0,0,0-3.752-.682,50.53,50.53,0,0,0-6.312-.17m0,7.506a7.722,7.722,0,0,0-7.848,7.592c0,.085,0,.17,0,.256a7.848,7.848,0,1,0,7.848-7.848m0,12.966a5.026,5.026,0,0,1-5.119-4.933c0-.062,0-.124,0-.186a5.027,5.027,0,0,1,4.932-5.119h.187a5.027,5.027,0,0,1,5.118,4.933q0,.092,0,.186a5.026,5.026,0,0,1-4.932,5.118c-.062,0-.124,0-.186,0m8.189-15.183a1.877,1.877,0,1,0,1.877,1.877,1.877,1.877,0,0,0-1.877-1.877" transform="translate(-1436.854 -6326.266)" fill="#fff" fill-rule="evenodd"/>
</svg>
