<svg id="Componente_70_2" data-name="Componente 70 – 2" xmlns="http://www.w3.org/2000/svg" width="47" height="47" viewBox="0 0 47 47">
  <circle id="Elipse_403" data-name="Elipse 403" cx="23.5" cy="23.5" r="23.5" fill="#eee6f1"/>
  <path id="ic_thumb_up_24px" d="M1,21H5V9H1ZM23,10a2.006,2.006,0,0,0-2-2H14.69l.95-4.57.03-.32a1.505,1.505,0,0,0-.44-1.06L14.17,1,7.59,7.59A1.955,1.955,0,0,0,7,9V19a2.006,2.006,0,0,0,2,2h9a1.987,1.987,0,0,0,1.84-1.22l3.02-7.05A1.976,1.976,0,0,0,23,12V10.09l-.01-.01Z" transform="translate(12 10)" fill="#dc7aab"/>
</svg>
