<svg id="ic_people_24px" xmlns="http://www.w3.org/2000/svg" width="45.236" height="28.786" viewBox="0 0 45.236 28.786">
  <path id="ic_people_outline_24px" d="M32.871,21.449a24.647,24.647,0,0,0-9.253,2.056,24.255,24.255,0,0,0-9.253-2.056C9.9,21.449,1,23.67,1,28.132v5.654H46.236V28.132C46.236,23.67,37.333,21.449,32.871,21.449ZM24.646,30.7H4.084v-2.57c0-1.11,5.264-3.6,10.281-3.6s10.281,2.488,10.281,3.6Zm18.506,0H27.73v-2.57a3.741,3.741,0,0,0-1.069-2.509,19.837,19.837,0,0,1,6.21-1.09c5.017,0,10.281,2.488,10.281,3.6ZM14.365,19.393a7.2,7.2,0,1,0-7.2-7.2A7.2,7.2,0,0,0,14.365,19.393Zm0-11.309A4.112,4.112,0,1,1,10.253,12.2,4.124,4.124,0,0,1,14.365,8.084ZM32.871,19.393a7.2,7.2,0,1,0-7.2-7.2A7.2,7.2,0,0,0,32.871,19.393Zm0-11.309A4.112,4.112,0,1,1,28.758,12.2,4.124,4.124,0,0,1,32.871,8.084Z" transform="translate(-1 -5)" fill="#fff"/>
</svg>
