<svg xmlns="http://www.w3.org/2000/svg" xmlns:xlink="http://www.w3.org/1999/xlink" width="37" height="37" viewBox="0 0 37 37">
  <defs>
    <linearGradient id="linear-gradient" x1="0.736" y1="3.35" x2="1.737" y2="3.35" gradientUnits="objectBoundingBox">
      <stop offset="0.07" stop-color="#0f0f36"/>
      <stop offset="0.76" stop-color="#232371"/>
    </linearGradient>
    <linearGradient id="linear-gradient-2" x1="0.426" y1="4.857" x2="1.427" y2="4.857" gradientUnits="objectBoundingBox">
      <stop offset="0" stop-color="#0f0f36"/>
      <stop offset="0.8" stop-color="#232371"/>
    </linearGradient>
    <linearGradient id="linear-gradient-3" x1="-0.011" y1="5.233" x2="0.989" y2="5.233" xlink:href="#linear-gradient"/>
    <linearGradient id="linear-gradient-4" x1="0.066" y1="0.837" x2="1.103" y2="0.837" gradientUnits="objectBoundingBox">
      <stop offset="0" stop-color="#479ff5"/>
      <stop offset="0.22" stop-color="#405ee5"/>
      <stop offset="0.35" stop-color="#523bda"/>
      <stop offset="0.43" stop-color="#5a55ce"/>
      <stop offset="0.56" stop-color="#5a55ce"/>
      <stop offset="0.76" stop-color="#3b3cbb"/>
      <stop offset="0.87" stop-color="#171e9b"/>
      <stop offset="1" stop-color="#171e9b"/>
    </linearGradient>
  </defs>
  <g id="Grupo_8668" data-name="Grupo 8668" transform="translate(-805.209 -0.432)">
    <circle id="Elipse_399" data-name="Elipse 399" cx="18.5" cy="18.5" r="18.5" transform="translate(805.209 0.432)" fill="#fff"/>
    <g id="meteor-wallet-near-logo" transform="translate(801.565 -5.543)">
      <path id="Trazado_10777" data-name="Trazado 10777" d="M.711,0H7.976a1.471,1.471,0,0,1,0,2.942H.711A.71.71,0,0,1,0,2.236V.708A.71.71,0,0,1,.711,0Z" transform="translate(16.294 20.569) rotate(-45)" fill="url(#linear-gradient)"/>
      <path id="Trazado_10778" data-name="Trazado 10778" d="M.742,0H8.9a1.5,1.5,0,0,1,0,3.009H.742A.742.742,0,0,1,0,2.267V.74A.742.742,0,0,1,.742,0Z" transform="translate(22.9 21.565) rotate(-45)" fill="url(#linear-gradient-2)"/>
      <rect id="Rectángulo_3004" data-name="Rectángulo 3004" width="3.834" height="2.721" rx="1.36" transform="translate(27.281 24.866) rotate(-45)" fill="url(#linear-gradient-3)"/>
      <path id="Trazado_10779" data-name="Trazado 10779" d="M29.909,51.781l-3.667,3.667a1.441,1.441,0,0,1-2.04-2.037l.779-.78a1.29,1.29,0,0,0,.046-1.8,1.262,1.262,0,0,0-1.8-.016l-3.442,3.442a1.442,1.442,0,0,1-2.037-2.04l1.146-1.147a1.262,1.262,0,0,0-.017-1.8,1.289,1.289,0,0,0-1.8.046l-3.112,3.112c-.015.014-.027.03-.041.045A9.254,9.254,0,0,0,27.007,65.561L27,65.549c.015-.014.03-.026.045-.041l5.494-5.494a1.289,1.289,0,0,0,.046-1.8,1.262,1.262,0,0,0-1.8-.017s1.029-1.027-.555.558A1.316,1.316,0,1,1,28.362,56.9l3.361-3.361a1.262,1.262,0,0,0-.017-1.8,1.289,1.289,0,0,0-1.8.046Z" transform="translate(0 -33.057)" fill="url(#linear-gradient-4)"/>
      <rect id="Rectángulo_3005" data-name="Rectángulo 3005" width="2.884" height="1.442" rx="0.721" transform="translate(14.175 19.672) rotate(-45)" fill="#a4a1ef"/>
      <circle id="Elipse_410" data-name="Elipse 410" cx="0.721" cy="0.721" r="0.721" transform="translate(17.023 16.401)" fill="#c2bffc"/>
      <rect id="Rectángulo_3006" data-name="Rectángulo 3006" width="2.163" height="1.442" rx="0.721" transform="translate(22.333 19.162) rotate(-45)" fill="#786bee"/>
    </g>
  </g>
</svg>
