<svg xmlns="http://www.w3.org/2000/svg" xmlns:xlink="http://www.w3.org/1999/xlink" width="37" height="37" viewBox="0 0 37 37">
  <defs>
    <linearGradient id="linear-gradient" x1="0.341" y1="0.029" x2="1.034" y2="0.747" gradientUnits="objectBoundingBox">
      <stop offset="0.09" stop-color="#a6d5fc"/>
      <stop offset="0.19" stop-color="#a0d3fb"/>
      <stop offset="0.3" stop-color="#90cff9"/>
      <stop offset="0.44" stop-color="#76c8f7"/>
      <stop offset="0.58" stop-color="#52bff3"/>
      <stop offset="0.59" stop-color="#50bff3"/>
      <stop offset="1" stop-color="#149eea"/>
    </linearGradient>
    <linearGradient id="linear-gradient-2" x1="0.051" y1="0.289" x2="0.731" y2="1.066" gradientUnits="objectBoundingBox">
      <stop offset="0.05" stop-color="#8435fe"/>
      <stop offset="0.5" stop-color="#c98efe"/>
      <stop offset="0.93" stop-color="#f3b6fe"/>
    </linearGradient>
    <linearGradient id="linear-gradient-3" y1="0.5" x2="1" y2="0.5" gradientUnits="objectBoundingBox">
      <stop offset="0" stop-color="#9d5cfe"/>
      <stop offset="0.12" stop-color="#9861fd"/>
      <stop offset="0.28" stop-color="#8a71fd"/>
      <stop offset="0.46" stop-color="#738bfc"/>
      <stop offset="0.59" stop-color="#5ea3fc"/>
      <stop offset="1" stop-color="#47bcfc"/>
    </linearGradient>
  </defs>
  <g id="Grupo_8668" data-name="Grupo 8668" transform="translate(-805.209 -0.432)">
    <circle id="Elipse_399" data-name="Elipse 399" cx="18.5" cy="18.5" r="18.5" transform="translate(805.209 0.432)" fill="#fff"/>
    <g id="Capa_1" data-name="Capa 1" transform="translate(814.614 8.465)">
      <g id="Grupo_8709" data-name="Grupo 8709" transform="translate(0 0.003)">
        <path id="Trazado_10780" data-name="Trazado 10780" d="M40.254,7.414v11.83L36.387,12.8V6.63a2.769,2.769,0,0,0-5-1.639L28.42,2.154s3.3-3.308,7.206-1.72c.1.039.193.08.286.123a7.493,7.493,0,0,1,4.342,6.856Z" transform="translate(-22.574 -0.003)" fill="url(#linear-gradient)"/>
        <path id="Trazado_10781" data-name="Trazado 10781" d="M0,20.042V8.21l3.867,6.445v6.169a2.769,2.769,0,0,0,5,1.639L11.834,25.3s-3.306,3.308-7.206,1.72c-.1-.039-.193-.08-.286-.123A7.49,7.49,0,0,1,0,20.042Z" transform="translate(0 -6.522)" fill="url(#linear-gradient-2)"/>
        <path id="Trazado_10782" data-name="Trazado 10782" d="M1.884,3.11a2.326,2.326,0,0,0-.775-.095A1.025,1.025,0,0,0,0,3.688V6.749L15.794,22.542a2.326,2.326,0,0,0,.775.095,1.025,1.025,0,0,0,1.109-.673V18.9Z" transform="translate(0 -2.392)" fill="url(#linear-gradient-3)"/>
      </g>
    </g>
  </g>
</svg>
