<svg xmlns="http://www.w3.org/2000/svg" width="37" height="37" viewBox="0 0 37 37">
  <g id="Grupo_8547" data-name="Grupo 8547" transform="translate(-805.209 -0.432)">
    <circle id="Elipse_399" data-name="Elipse 399" cx="18.5" cy="18.5" r="18.5" transform="translate(805.209 0.432)" fill="#26232c"/>
    <path id="Trazado_10745" data-name="Trazado 10745" d="M-164.13,97.36l-4.318,6.407a.459.459,0,0,0,.689.6l4.248-3.7a.167.167,0,0,1,.276.138v11.551a.172.172,0,0,1-.3.114l-12.86-15.386a2.123,2.123,0,0,0-1.676-.78h-.459a2.2,2.2,0,0,0-2.182,2.2v16.259a2.2,2.2,0,0,0,2.2,2.2,2.212,2.212,0,0,0,1.883-1.056l4.318-6.407a.459.459,0,0,0-.689-.6l-4.248,3.675a.167.167,0,0,1-.276-.138V100.919a.172.172,0,0,1,.3-.114l12.859,15.386a2.159,2.159,0,0,0,1.677.78h.459a2.2,2.2,0,0,0,2.2-2.2V98.508a2.24,2.24,0,0,0-2.227-2.2A2.212,2.212,0,0,0-164.13,97.36Z" transform="translate(993.818 -88.094)" fill="#fff"/>
  </g>
</svg>
