<svg id="ic_people_24px" xmlns="http://www.w3.org/2000/svg" width="35.814" height="37.062" viewBox="0 0 35.814 37.062">
  <path id="gavel_FILL0_wght400_GRAD0_opsz24" d="M162.038-814.524h20.378a1.972,1.972,0,0,1,1.452.586,1.972,1.972,0,0,1,.586,1.452,1.972,1.972,0,0,1-.586,1.452,1.971,1.971,0,0,1-1.452.586H162.038a1.971,1.971,0,0,1-1.452-.586,1.972,1.972,0,0,1-.586-1.452,1.972,1.972,0,0,1,.586-1.452A1.972,1.972,0,0,1,162.038-814.524Zm6.572-8.711-5.757-5.757a4,4,0,0,1-1.2-2.878,3.827,3.827,0,0,1,1.146-2.878l1.477-1.477,11.615,11.513-1.477,1.477a3.943,3.943,0,0,1-2.9,1.172A3.943,3.943,0,0,1,168.61-823.235Zm15.844-10.036L172.94-844.886l1.477-1.477a3.827,3.827,0,0,1,2.878-1.146,4,4,0,0,1,2.878,1.2l5.757,5.757a3.944,3.944,0,0,1,1.172,2.9,3.943,3.943,0,0,1-1.172,2.9Zm7.947,19.359-25.166-25.166,2.853-2.853,25.166,25.166a1.932,1.932,0,0,1,.56,1.426,1.933,1.933,0,0,1-.56,1.427,1.932,1.932,0,0,1-1.426.56A1.932,1.932,0,0,1,192.4-813.912Z" transform="translate(-160 847.511)" fill="#fff"/>
</svg>
