<svg xmlns="http://www.w3.org/2000/svg" width="27.635" height="28.786" viewBox="0 0 27.635 28.786">
  <path id="edit_document_FILL0_wght400_GRAD0_opsz24" d="M162.879-851.214a2.772,2.772,0,0,1-2.033-.846,2.772,2.772,0,0,1-.846-2.033v-23.029a2.772,2.772,0,0,1,.846-2.033,2.772,2.772,0,0,1,2.033-.846h10.327a2.842,2.842,0,0,1,1.1.216,2.8,2.8,0,0,1,.918.612l6.981,6.981a2.8,2.8,0,0,1,.612.918,2.841,2.841,0,0,1,.216,1.1v4.57H180.15v-4.318h-5.757a1.393,1.393,0,0,1-1.026-.414,1.393,1.393,0,0,1-.414-1.026v-5.757H162.879v23.029h8.636v2.879Zm0-2.879v0Zm17.7-7.88,1.547,1.547-5.577,5.541v1.511h1.511l5.577-5.541,1.511,1.511-5.757,5.757a1.439,1.439,0,0,1-.486.324,1.489,1.489,0,0,1-.558.108h-3.238a.69.69,0,0,1-.5-.216.69.69,0,0,1-.216-.5v-3.238a1.488,1.488,0,0,1,.108-.558,1.437,1.437,0,0,1,.324-.486Zm4.57,4.57-4.57-4.57,2.087-2.087a1.365,1.365,0,0,1,1.008-.4,1.365,1.365,0,0,1,1.008.4l2.555,2.555a1.365,1.365,0,0,1,.4,1.008,1.365,1.365,0,0,1-.4,1.008Z" transform="translate(-160 880)" fill="#fff"/>
</svg>
