<svg id="ic_people_24px" xmlns="http://www.w3.org/2000/svg" width="28.054" height="28.786" viewBox="0 0 28.054 28.786">
  <path id="settings_FILL0_wght400_GRAD0_opsz24" d="M101.51-851.214a1.345,1.345,0,0,1-.936-.36,1.435,1.435,0,0,1-.468-.9l-.432-3.346a5.468,5.468,0,0,1-.882-.432q-.414-.252-.81-.54l-3.131,1.3a1.4,1.4,0,0,1-1.008.054,1.416,1.416,0,0,1-.792-.63l-2.663-4.642a1.352,1.352,0,0,1-.18-1.008,1.381,1.381,0,0,1,.54-.864l2.7-2.051a3.438,3.438,0,0,1-.036-.486v-.971a3.439,3.439,0,0,1,.036-.486l-2.7-2.051a1.381,1.381,0,0,1-.54-.864,1.352,1.352,0,0,1,.18-1.007l2.663-4.642a1.415,1.415,0,0,1,.792-.63,1.4,1.4,0,0,1,1.008.054l3.131,1.3a9.8,9.8,0,0,1,.828-.54,7.258,7.258,0,0,1,.864-.432l.432-3.346a1.434,1.434,0,0,1,.468-.9,1.345,1.345,0,0,1,.936-.36h5.4a1.345,1.345,0,0,1,.936.36,1.434,1.434,0,0,1,.468.9l.432,3.346a5.468,5.468,0,0,1,.882.432q.414.252.81.54l3.131-1.3a1.4,1.4,0,0,1,1.008-.054,1.415,1.415,0,0,1,.792.63l2.663,4.642a1.352,1.352,0,0,1,.18,1.007,1.381,1.381,0,0,1-.54.864l-2.7,2.051a3.437,3.437,0,0,1,.036.486v.971a1.767,1.767,0,0,1-.072.486l2.7,2.051a1.381,1.381,0,0,1,.54.864,1.352,1.352,0,0,1-.18,1.008l-2.663,4.606a1.5,1.5,0,0,1-.81.648,1.378,1.378,0,0,1-1.026-.036l-3.059-1.3a9.837,9.837,0,0,1-.828.54,7.258,7.258,0,0,1-.864.432l-.432,3.346a1.435,1.435,0,0,1-.468.9,1.345,1.345,0,0,1-.936.36Zm1.259-2.879h2.843l.5-3.814a8.072,8.072,0,0,0,2.069-.846,8.6,8.6,0,0,0,1.745-1.349l3.562,1.475,1.4-2.447-3.095-2.339a5.08,5.08,0,0,0,.252-1.061,8.849,8.849,0,0,0,.072-1.133,8.849,8.849,0,0,0-.072-1.133,5.08,5.08,0,0,0-.252-1.062l3.095-2.339-1.4-2.447-3.562,1.511a7.992,7.992,0,0,0-1.745-1.385,8.068,8.068,0,0,0-2.069-.846l-.468-3.814h-2.843l-.5,3.814a8.068,8.068,0,0,0-2.069.846,8.593,8.593,0,0,0-1.745,1.349l-3.562-1.475-1.4,2.447,3.095,2.3a5.855,5.855,0,0,0-.252,1.08,8.719,8.719,0,0,0-.072,1.151,8.432,8.432,0,0,0,.072,1.115,5.856,5.856,0,0,0,.252,1.079l-3.095,2.339,1.4,2.447,3.562-1.511a8,8,0,0,0,1.745,1.385,8.072,8.072,0,0,0,2.069.846Zm1.511-6.477a4.854,4.854,0,0,0,3.562-1.475,4.854,4.854,0,0,0,1.475-3.562,4.854,4.854,0,0,0-1.475-3.562,4.854,4.854,0,0,0-3.562-1.475,4.837,4.837,0,0,0-3.58,1.475,4.885,4.885,0,0,0-1.457,3.562,4.884,4.884,0,0,0,1.457,3.562A4.837,4.837,0,0,0,104.281-860.569ZM104.209-865.607Z" transform="translate(-90.182 880)" fill="#fff"/>
</svg>
