<svg xmlns="http://www.w3.org/2000/svg" width="40.684" height="33.819" viewBox="0 0 40.684 33.819">
  <g id="Grupo_8663" data-name="Grupo 8663" transform="translate(1036.005)">
    <path id="Trazado_10764" data-name="Trazado 10764" d="M-1014.4,1077.59l18.547-18.546a1.77,1.77,0,0,0,.242-2.231l-7.45-11.7a1.783,1.783,0,0,0-1.524-.816h-22.163a1.846,1.846,0,0,0-1.524.816l-7.45,11.665a1.785,1.785,0,0,0,.242,2.231l18.546,18.571A1.772,1.772,0,0,0-1014.4,1077.59Z" transform="translate(0 -1044.3)" fill="#231f20"/>
    <g id="Grupo_8636" data-name="Grupo 8636" transform="translate(-1026.203 5.497)">
      <path id="Trazado_10765" data-name="Trazado 10765" d="M-861.552,1145.341h0c-.109,0-.732.024-2.068.024-1.089,0-1.82-.024-2.092-.054h0c-4.136-.188-7.208-.9-7.208-1.766s3.072-1.578,7.208-1.766v2.8c.272.024,1.034.055,2.123.055,1.276,0,1.929-.055,2.038-.055v-2.8c4.136.188,7.208.895,7.208,1.766-.006.9-3.1,1.609-7.208,1.8m0-3.8v-2.5h5.763V1135.2h-15.662v3.834h5.739v2.5c-4.674.218-8.188,1.143-8.188,2.256s3.507,2.038,8.188,2.255v8.049h4.16v-8.049c4.675-.218,8.188-1.143,8.188-2.255s-3.513-2.038-8.188-2.256" transform="translate(873.9 -1135.2)" fill="#fff"/>
    </g>
  </g>
</svg>
