<svg xmlns="http://www.w3.org/2000/svg" width="36.999" height="36.999" viewBox="0 0 36.999 36.999">
  <g id="Grupo_8547" data-name="Grupo 8547" transform="translate(-805.209)">
    <g id="USD_Coin_USDC_" data-name="USD Coin (USDC)" transform="translate(805.209)">
      <path id="Trazado_10757" data-name="Trazado 10757" d="M566.1,172.1a18.5,18.5,0,1,0-18.5-18.5A18.454,18.454,0,0,0,566.1,172.1Z" transform="translate(-547.6 -135.1)" fill="#231f20"/>
      <path id="Trazado_10758" data-name="Trazado 10758" d="M1274.726,655.425c0-2.7-1.619-3.622-4.856-4.009-2.313-.309-2.775-.925-2.775-2s.771-1.772,2.312-1.772a2.28,2.28,0,0,1,2.544,1.619.581.581,0,0,0,.54.385h1.234a.527.527,0,0,0,.54-.54v-.078a3.85,3.85,0,0,0-3.469-3.16v-1.85c0-.309-.231-.54-.616-.616h-1.156c-.309,0-.54.231-.616.616v1.772c-2.312.309-3.778,1.85-3.778,3.778,0,2.544,1.541,3.546,4.778,3.931,2.159.385,2.853.847,2.853,2.081s-1.079,2.081-2.544,2.081c-2,0-2.7-.847-2.928-2a.564.564,0,0,0-.54-.463h-1.31a.527.527,0,0,0-.54.54v.078c.309,1.928,1.541,3.315,4.085,3.7v1.85c0,.309.231.54.616.616h1.156c.309,0,.54-.231.616-.616v-1.85a4.225,4.225,0,0,0,3.853-4.087Z" transform="translate(-1251.139 -633.997)" fill="#fff"/>
      <path id="Trazado_10759" data-name="Trazado 10759" d="M805.52,450.925a11.534,11.534,0,0,1,0-21.659.772.772,0,0,0,.463-.771v-1.079a.583.583,0,0,0-.463-.616.462.462,0,0,0-.309.078,13.871,13.871,0,0,0,0,26.439.469.469,0,0,0,.694-.309c.078-.078.078-.154.078-.309v-1.078A1.028,1.028,0,0,0,805.52,450.925Zm8.169-24.049a.469.469,0,0,0-.694.309c-.078.078-.078.154-.078.309v1.079a1.025,1.025,0,0,0,.463.771,11.534,11.534,0,0,1,0,21.659.772.772,0,0,0-.463.771v1.078a.584.584,0,0,0,.463.616.462.462,0,0,0,.309-.078,13.93,13.93,0,0,0,0-26.515Z" transform="translate(-790.952 -421.404)" fill="#fff"/>
    </g>
  </g>
</svg>
