<svg xmlns="http://www.w3.org/2000/svg" width="24" height="25.968" viewBox="0 0 24 25.968">
  <path id="how_to_vote_FILL0_wght400_GRAD0_opsz24" d="M122.667-833.074a2.568,2.568,0,0,1-1.883-.783A2.568,2.568,0,0,1,120-835.74v-6.067l3.667-4.167,1.9,1.9-2.667,3h18.2l-2.6-2.933,1.9-1.9,3.6,4.1v6.067a2.568,2.568,0,0,1-.783,1.883,2.568,2.568,0,0,1-1.883.783Zm0-2.667h18.667v-2.667H122.667Zm7.5-7.5-4.7-4.7a2.5,2.5,0,0,1-.75-1.883,2.619,2.619,0,0,1,.783-1.883l6.533-6.533a2.7,2.7,0,0,1,1.9-.8,2.47,2.47,0,0,1,1.9.733l4.7,4.7a2.661,2.661,0,0,1,.8,1.867,2.429,2.429,0,0,1-.733,1.867l-6.667,6.667a2.5,2.5,0,0,1-1.883.75A2.619,2.619,0,0,1,130.167-843.24Zm8.5-8.467-4.7-4.7-6.6,6.6,4.7,4.7Zm-16,15.967v0Z" transform="translate(-120 859.042)" fill="#fff"/>
</svg>
