<?xml version="1.0" standalone="no"?>
<!DOCTYPE svg PUBLIC "-//W3C//DTD SVG 20010904//EN"
 "http://www.w3.org/TR/2001/REC-SVG-20010904/DTD/svg10.dtd">
<svg version="1.0" xmlns="http://www.w3.org/2000/svg"
 width="1123.000000pt" height="1099.000000pt" viewBox="0 0 1123.000000 1099.000000"
 preserveAspectRatio="xMidYMid meet">
<metadata>
Created by potrace 1.16, written by Peter Selinger 2001-2019
</metadata>
<g transform="translate(0.000000,1099.000000) scale(0.100000,-0.100000)"
fill="#000000" stroke="none">
<path d="M5360 9474 c-611 -44 -1204 -221 -1715 -512 -679 -387 -1247 -987
-1598 -1688 -160 -320 -285 -695 -351 -1054 -49 -267 -60 -403 -60 -725 0
-226 4 -336 17 -445 96 -776 377 -1453 853 -2050 138 -173 441 -476 614 -614
140 -112 386 -280 525 -358 463 -262 969 -426 1525 -495 204 -25 686 -25 890
0 776 96 1453 377 2050 853 173 138 476 441 614 614 112 140 280 386 358 525
262 463 426 969 495 1525 25 204 25 686 0 890 -96 776 -377 1453 -853 2050
-138 173 -441 476 -614 614 -140 112 -386 280 -525 358 -460 261 -974 428
-1515 493 -129 16 -586 28 -710 19z m1063 -751 c4 -75 7 -306 7 -514 0 -208 3
-380 8 -382 4 -3 72 -15 152 -26 193 -29 465 -92 612 -141 439 -146 707 -441
774 -848 24 -143 14 -373 -20 -507 -32 -126 -100 -263 -175 -357 -70 -87 -111
-126 -211 -203 -41 -31 -75 -64 -75 -71 0 -10 41 -28 117 -54 440 -147 672
-404 733 -810 19 -122 19 -351 0 -510 -43 -369 -137 -591 -335 -791 -170 -173
-365 -271 -700 -353 -134 -32 -685 -136 -770 -144 l-65 -7 -5 -525 -5 -525
-315 0 -315 0 -6 380 c-3 209 -7 442 -8 518 l-1 137 -250 0 -250 0 7 -516 c5
-439 4 -517 -8 -525 -8 -5 -152 -9 -320 -9 l-306 0 -6 317 c-4 174 -7 412 -7
530 l0 213 -640 0 -639 0 5 28 c3 15 29 182 58 372 l52 345 239 7 c282 9 328
18 391 82 72 71 69 30 65 986 -2 470 -7 1123 -11 1450 -8 682 -5 656 -94 745
-83 83 -109 88 -448 93 l-288 4 0 339 0 339 353 0 c195 0 483 3 640 7 l287 6
0 517 0 517 308 5 c169 3 308 4 310 3 2 -2 8 -232 12 -512 5 -279 9 -508 10
-508 64 0 288 6 378 11 l122 6 0 499 0 499 78 1 c70 2 410 13 508 17 l41 2 6
-137z"/>
<path d="M5310 6469 l0 -637 28 -6 c57 -14 423 -18 549 -7 175 17 373 54 479
92 268 93 425 286 427 524 3 225 -125 434 -319 521 -98 43 -262 67 -815 118
l-349 32 0 -637z"/>
<path d="M5438 5163 l-117 -4 6 -692 c3 -381 7 -693 8 -695 7 -8 547 -2 675 8
363 27 616 93 818 212 133 78 236 217 263 356 14 76 7 246 -15 313 -38 121
-126 235 -229 297 -136 82 -350 153 -562 188 -101 16 -575 26 -847 17z"/>
</g>
</svg>
