<svg id="Versiones_logo_METADEMOCRACIA_Mesa_de_trabajo_1" data-name="Versiones logo METADEMOCRACIA_Mesa de trabajo 1" xmlns="http://www.w3.org/2000/svg" xmlns:xlink="http://www.w3.org/1999/xlink" width="101" height="33.948" viewBox="0 0 101 33.948">
  <defs>
    <linearGradient id="linear-gradient" x1="0.264" y1="0.943" x2="0.832" y2="-0.119" gradientUnits="objectBoundingBox">
      <stop offset="0" stop-color="#da157c"/>
      <stop offset="1" stop-color="#62c3d7"/>
    </linearGradient>
    <linearGradient id="linear-gradient-2" x1="-0.205" y1="1.969" x2="0.688" y2="-0.229" xlink:href="#linear-gradient"/>
    <linearGradient id="linear-gradient-3" x1="0.462" y1="0.955" x2="0.559" y2="0.027" gradientUnits="objectBoundingBox">
      <stop offset="0" stop-color="#3c3c3b"/>
      <stop offset="1" stop-color="#706f6f"/>
    </linearGradient>
    <linearGradient id="linear-gradient-4" x1="0.398" y1="1.068" x2="0.495" y2="0.141" xlink:href="#linear-gradient-3"/>
    <linearGradient id="linear-gradient-5" x1="0.471" y1="1.174" x2="0.572" y2="0.252" xlink:href="#linear-gradient-3"/>
  </defs>
  <path id="Trazado_10725" data-name="Trazado 10725" d="M141.917,201.152a2.692,2.692,0,0,1,1.913.663,2.415,2.415,0,0,1,0,3.429,2.7,2.7,0,0,1-1.913.663H140.26V201.15Zm0,4.069a1.911,1.911,0,0,0,1.356-.469,1.732,1.732,0,0,0,0-2.443,1.918,1.918,0,0,0-1.356-.467h-.9v3.379Z" transform="translate(-120.87 -172.126)" fill="#575756"/>
  <path id="Trazado_10726" data-name="Trazado 10726" d="M183.623,205.916H180.08V201.16h3.535v.689h-2.776v1.341H183.4v.683h-2.564v1.356h2.784Z" transform="translate(-154.09 -172.135)" fill="#575756"/>
  <path id="Trazado_10727" data-name="Trazado 10727" d="M221.111,205.916h-.738v-3.038l-1.639,3.038h-.469l-1.634-3.038v3.038H215.9V201.16h.663l1.939,3.6,1.946-3.6h.663Z" transform="translate(-183.974 -172.135)" fill="#575756"/>
  <path id="Trazado_10728" data-name="Trazado 10728" d="M265.479,201.282a2.511,2.511,0,1,1-1.763-.724A2.4,2.4,0,0,1,265.479,201.282Zm-.544,3.01a1.707,1.707,0,0,0,.5-1.25,1.718,1.718,0,1,0-3.434.008,1.718,1.718,0,0,0,2.935,1.25Z" transform="translate(-221.769 -171.632)" fill="#575756"/>
  <path id="Trazado_10729" data-name="Trazado 10729" d="M306.291,204.453a1.553,1.553,0,0,0,.575-.895l.739.156a2.171,2.171,0,0,1-.829,1.293,2.431,2.431,0,0,1-1.492.467,2.486,2.486,0,1,1,0-4.955,2.449,2.449,0,0,1,1.478.461,2.155,2.155,0,0,1,.829,1.243l-.739.214a1.553,1.553,0,0,0-.575-.895,1.74,1.74,0,0,0-2.2.21,1.841,1.841,0,0,0,0,2.506,1.631,1.631,0,0,0,1.218.509A1.647,1.647,0,0,0,306.291,204.453Z" transform="translate(-256.302 -171.592)" fill="#575756"/>
  <path id="Trazado_10730" data-name="Trazado 10730" d="M349.974,205.907l-1.7-1.894h-.689v1.894h-.759V201.15h2.236a1.73,1.73,0,0,1,1.183.394,1.422,1.422,0,0,1,.041,2.037,1.644,1.644,0,0,1-1.09.423l1.72,1.9Zm-.908-2.584a.953.953,0,0,0,.631-.2.719.719,0,0,0,0-1.076.936.936,0,0,0-.631-.206h-1.477v1.492Z" transform="translate(-293.205 -172.125)" fill="#575756"/>
  <path id="Trazado_10731" data-name="Trazado 10731" d="M385.6,205.916l-.469-1.107h-2.32l-.469,1.107h-.829l2.093-4.756h.711l2.093,4.756Zm-1.627-3.827-.858,2.027h1.719Z" transform="translate(-322.137 -172.135)" fill="#575756"/>
  <path id="Trazado_10732" data-name="Trazado 10732" d="M423.511,204.453a1.554,1.554,0,0,0,.577-.895l.737.156a2.164,2.164,0,0,1-.829,1.293,2.428,2.428,0,0,1-1.492.467,2.486,2.486,0,1,1,0-4.955,2.449,2.449,0,0,1,1.478.461,2.154,2.154,0,0,1,.829,1.243l-.737.214a1.555,1.555,0,0,0-.577-.895,1.738,1.738,0,0,0-2.2.21,1.836,1.836,0,0,0,0,2.506,1.624,1.624,0,0,0,1.216.509A1.647,1.647,0,0,0,423.511,204.453Z" transform="translate(-354.095 -171.592)" fill="#575756"/>
  <path id="Trazado_10733" data-name="Trazado 10733" d="M464.05,205.916V201.16h.759v4.756Z" transform="translate(-390.998 -172.135)" fill="#575756"/>
  <path id="Trazado_10734" data-name="Trazado 10734" d="M484.817,205.916l-.469-1.107h-2.32l-.469,1.107h-.829l2.095-4.756h.709l2.095,4.756Zm-1.626-3.827-.859,2.027h1.719Z" transform="translate(-404.914 -172.135)" fill="#575756"/>
  <path id="Trazado_10735" data-name="Trazado 10735" d="M39,73.623l-12.466-7.7a2.145,2.145,0,0,0-3.272,1.823V83.377A2.154,2.154,0,0,0,24.274,85.2l.152.094A2.145,2.145,0,0,0,27.7,83.471V73.4a.926.926,0,0,1,1.427-.782l9.848,6.3a2.138,2.138,0,0,0,2.27.025l10.476-6.376a.928.928,0,0,1,1.41.792v10.2a2.145,2.145,0,0,0,3.3,1.8h0a2.145,2.145,0,0,0,.984-1.8V67.69a2.143,2.143,0,0,0-3.248-1.836L41.245,73.643A2.145,2.145,0,0,1,39,73.623Z" transform="translate(-23.26 -58.997)" fill="url(#linear-gradient)"/>
  <path id="Trazado_10736" data-name="Trazado 10736" d="M63.184,26.568l.151-.091a2.141,2.141,0,0,1,2.272.03l6.182,3.978a2.154,2.154,0,0,0,2.32,0l6.463-4.128a2.143,2.143,0,0,1,2.285,0l.036.023a2.145,2.145,0,0,1-.036,3.646l-9.022,5.431a2.141,2.141,0,0,1-2.232-.013l-8.434-5.214a2.143,2.143,0,0,1,.015-3.656Z" transform="translate(-55.706 -26.023)" fill="url(#linear-gradient-2)"/>
  <path id="Trazado_10737" data-name="Trazado 10737" d="M255.943,71v1.869H267.1a1.788,1.788,0,0,1,1.795,1.787v.02a1.788,1.788,0,0,1-1.788,1.788H255.943v3.8a1.845,1.845,0,0,0,1.84,1.84h13.1a1.589,1.589,0,0,1,1.589,1.591V84.1a1.589,1.589,0,0,1-1.589,1.591h-13.1a5.406,5.406,0,0,1-5.406-5.406V71a5.451,5.451,0,0,1,5.436-5.434H270.89a1.589,1.589,0,0,1,1.589,1.591v.413a1.589,1.589,0,0,1-1.589,1.591h-13.1A1.845,1.845,0,0,0,255.943,71Z" transform="translate(-214.408 -59.016)" opacity="0.91" fill="url(#linear-gradient-3)"/>
  <path id="Trazado_10738" data-name="Trazado 10738" d="M412.358,66.9v.867a1.366,1.366,0,0,1-1.366,1.366h-6.9V84.319a1.366,1.366,0,0,1-1.366,1.366h-.868a1.364,1.364,0,0,1-1.364-1.366V69.13h-6.9a1.366,1.366,0,0,1-1.366-1.367V66.9A1.366,1.366,0,0,1,393.6,65.53H411A1.366,1.366,0,0,1,412.358,66.9Z" transform="translate(-331.081 -58.983)" opacity="0.91" fill="url(#linear-gradient-4)"/>
  <path id="Trazado_10739" data-name="Trazado 10739" d="M533.655,85.777h0a1.9,1.9,0,0,1-1.685-1.031l-1.417-2.769-4.65-9.115-4.65,9.115-1.417,2.769a1.9,1.9,0,0,1-1.686,1.031h0a1.894,1.894,0,0,1-1.687-2.758L517,81.977l8.146-15.985a.853.853,0,0,1,1.521,0l8.146,15.985.534,1.042a1.894,1.894,0,0,1-1.687,2.758Z" transform="translate(-434.55 -58.979)" opacity="0.91" fill="url(#linear-gradient-5)"/>
</svg>
