<svg xmlns="http://www.w3.org/2000/svg" xmlns:xlink="http://www.w3.org/1999/xlink" width="138" height="46.384" viewBox="0 0 138 46.384">
  <defs>
    <linearGradient id="linear-gradient" x1="0.264" y1="0.943" x2="0.832" y2="-0.119" gradientUnits="objectBoundingBox">
      <stop offset="0" stop-color="#da157c"/>
      <stop offset="1" stop-color="#62c3d7"/>
    </linearGradient>
    <linearGradient id="linear-gradient-2" x1="-0.205" y1="1.969" x2="0.688" y2="-0.229" xlink:href="#linear-gradient"/>
  </defs>
  <g id="Grupo_8736" data-name="Grupo 8736" transform="translate(-303 -49)">
    <path id="Trazado_10725" data-name="Trazado 10725" d="M142.524,201.152a3.679,3.679,0,0,1,2.613.906,3.3,3.3,0,0,1,0,4.685,3.689,3.689,0,0,1-2.613.906H140.26v-6.5Zm0,5.559a2.611,2.611,0,0,0,1.852-.641,2.366,2.366,0,0,0,0-3.338,2.62,2.62,0,0,0-1.852-.639h-1.232v4.617Z" transform="translate(189.234 -112.494)" fill="#fff"/>
    <path id="Trazado_10726" data-name="Trazado 10726" d="M184.921,207.659H180.08v-6.5h4.83v.942h-3.793v1.832h3.5v.933h-3.5v1.852h3.8Z" transform="translate(158.432 -112.502)" fill="#fff"/>
    <path id="Trazado_10727" data-name="Trazado 10727" d="M223.019,207.659h-1.008v-4.151l-2.239,4.151h-.641l-2.233-4.151v4.151h-1v-6.5h.906l2.649,4.918,2.658-4.918h.906Z" transform="translate(130.723 -112.502)" fill="#fff"/>
    <path id="Trazado_10728" data-name="Trazado 10728" d="M267.045,201.548a3.431,3.431,0,1,1-2.409-.99A3.279,3.279,0,0,1,267.045,201.548Zm-.743,4.112a2.333,2.333,0,0,0,.679-1.707,2.347,2.347,0,1,0-4.692.011,2.347,2.347,0,0,0,4.01,1.707Z" transform="translate(95.678 -112.036)" fill="#fff"/>
    <path id="Trazado_10729" data-name="Trazado 10729" d="M307.644,205.9a2.121,2.121,0,0,0,.786-1.223l1.01.213a2.966,2.966,0,0,1-1.132,1.766,3.322,3.322,0,0,1-2.038.639,3.4,3.4,0,1,1,0-6.771,3.347,3.347,0,0,1,2.02.63,2.944,2.944,0,0,1,1.132,1.7l-1.01.292a2.122,2.122,0,0,0-.786-1.223,2.378,2.378,0,0,0-3,.288,2.516,2.516,0,0,0,0,3.424,2.228,2.228,0,0,0,1.664.7A2.251,2.251,0,0,0,307.644,205.9Z" transform="translate(63.658 -111.999)" fill="#fff"/>
    <path id="Trazado_10730" data-name="Trazado 10730" d="M351.126,207.65l-2.316-2.588h-.942v2.588H346.83v-6.5h3.055a2.364,2.364,0,0,1,1.617.539,1.943,1.943,0,0,1,.057,2.783,2.246,2.246,0,0,1-1.49.577l2.35,2.6Zm-1.241-3.53a1.3,1.3,0,0,0,.863-.276.982.982,0,0,0,0-1.47,1.28,1.28,0,0,0-.863-.281h-2.018v2.038Z" transform="translate(29.439 -112.493)" fill="#fff"/>
    <path id="Trazado_10731" data-name="Trazado 10731" d="M387.094,207.659l-.641-1.513h-3.17l-.641,1.513H381.51l2.86-6.5h.971l2.86,6.5Zm-2.224-5.229L383.7,205.2h2.348Z" transform="translate(2.613 -112.502)" fill="#fff"/>
    <path id="Trazado_10732" data-name="Trazado 10732" d="M424.865,205.9a2.124,2.124,0,0,0,.788-1.223l1.008.213a2.957,2.957,0,0,1-1.132,1.766,3.317,3.317,0,0,1-2.038.639,3.4,3.4,0,1,1,0-6.771,3.347,3.347,0,0,1,2.02.63,2.943,2.943,0,0,1,1.132,1.7l-1.008.292a2.124,2.124,0,0,0-.788-1.223,2.375,2.375,0,0,0-3,.288,2.509,2.509,0,0,0,0,3.424,2.219,2.219,0,0,0,1.662.7A2.251,2.251,0,0,0,424.865,205.9Z" transform="translate(-27.02 -111.999)" fill="#fff"/>
    <path id="Trazado_10733" data-name="Trazado 10733" d="M464.05,207.659v-6.5h1.037v6.5Z" transform="translate(-61.236 -112.502)" fill="#fff"/>
    <path id="Trazado_10734" data-name="Trazado 10734" d="M486.314,207.659l-.641-1.513H482.5l-.641,1.513H480.73l2.862-6.5h.969l2.862,6.5Zm-2.221-5.229L482.92,205.2h2.348Z" transform="translate(-74.141 -112.502)" fill="#fff"/>
    <path id="Trazado_10735" data-name="Trazado 10735" d="M44.763,76.582,27.73,66.057a2.93,2.93,0,0,0-4.47,2.491v21.36A2.944,2.944,0,0,0,24.646,92.4l.208.129a2.93,2.93,0,0,0,4.474-2.491V76.274a1.266,1.266,0,0,1,1.95-1.069l13.455,8.6a2.921,2.921,0,0,0,3.1.034l14.313-8.711a1.268,1.268,0,0,1,1.927,1.082V90.15a2.93,2.93,0,0,0,4.513,2.464h0a2.93,2.93,0,0,0,1.345-2.464V68.475A2.928,2.928,0,0,0,65.5,65.966L47.833,76.609A2.93,2.93,0,0,1,44.763,76.582Z" transform="translate(279.74 -7.597)" fill="url(#linear-gradient)"/>
    <path id="Trazado_10736" data-name="Trazado 10736" d="M63.562,26.767l.206-.125a2.926,2.926,0,0,1,3.1.041l8.446,5.435a2.944,2.944,0,0,0,3.17,0l8.831-5.641a2.928,2.928,0,0,1,3.123-.007l.05.032a2.93,2.93,0,0,1-.05,4.982L78.116,38.9a2.926,2.926,0,0,1-3.05-.018L63.542,31.763a2.928,2.928,0,0,1,.02-5Z" transform="translate(249.654 22.977)" fill="url(#linear-gradient-2)"/>
    <path id="Trazado_10737" data-name="Trazado 10737" d="M257.249,72.986V75.54h15.237a2.443,2.443,0,0,1,2.452,2.441v.027a2.443,2.443,0,0,1-2.443,2.443H257.249v5.186a2.52,2.52,0,0,0,2.513,2.513h17.9a2.172,2.172,0,0,1,2.172,2.174v.564a2.171,2.171,0,0,1-2.172,2.174h-17.9a7.386,7.386,0,0,1-7.386-7.387V73a7.448,7.448,0,0,1,7.427-7.425h17.864a2.172,2.172,0,0,1,2.172,2.174v.564a2.172,2.172,0,0,1-2.172,2.174h-17.9A2.52,2.52,0,0,0,257.249,72.986Z" transform="translate(102.502 -7.615)" fill="#fff" opacity="0.91"/>
    <path id="Trazado_10738" data-name="Trazado 10738" d="M419.731,67.4V68.58a1.866,1.866,0,0,1-1.866,1.866h-9.427V91.2a1.866,1.866,0,0,1-1.866,1.866h-1.186a1.864,1.864,0,0,1-1.864-1.866V70.448H394.1a1.866,1.866,0,0,1-1.866-1.868V67.4A1.866,1.866,0,0,1,394.1,65.53h23.776A1.866,1.866,0,0,1,419.731,67.4Z" transform="translate(-5.68 -7.584)" fill="#fff" opacity="0.91"/>
    <path id="Trazado_10739" data-name="Trazado 10739" d="M540.029,93.2h0a2.59,2.59,0,0,1-2.3-1.408L535.79,88l-6.354-12.454L523.082,88l-1.936,3.784a2.59,2.59,0,0,1-2.3,1.408h0a2.588,2.588,0,0,1-2.305-3.768L517.267,88l11.13-21.84a1.166,1.166,0,0,1,2.079,0L541.605,88l.729,1.424a2.588,2.588,0,0,1-2.305,3.768Z" transform="translate(-101.619 -7.58)" fill="#fff" opacity="0.91"/>
  </g>
</svg>
