<svg xmlns="http://www.w3.org/2000/svg" width="16.073" height="16.055" viewBox="0 0 16.073 16.055">
  <path id="Trazado_10800" data-name="Trazado 10800" d="M-167.83,97.124l-3.354,4.977a.357.357,0,0,0,.535.464l3.3-2.872a.129.129,0,0,1,.215.107v8.973a.134.134,0,0,1-.232.089l-9.99-11.952a1.649,1.649,0,0,0-1.3-.606h-.357a1.709,1.709,0,0,0-1.695,1.712v12.631A1.713,1.713,0,0,0-179,112.359a1.719,1.719,0,0,0,1.463-.82l3.354-4.977a.357.357,0,0,0-.535-.464l-3.3,2.855a.129.129,0,0,1-.215-.107V99.889A.134.134,0,0,1-178,99.8l9.99,11.952a1.678,1.678,0,0,0,1.3.606h.357a1.713,1.713,0,0,0,1.713-1.712V98.016a1.74,1.74,0,0,0-1.73-1.712A1.719,1.719,0,0,0-167.83,97.124Z" transform="translate(180.71 -96.304)" fill="#26232c"/>
</svg>
