<svg xmlns="http://www.w3.org/2000/svg" width="27" height="27" viewBox="0 0 27 27">
  <g id="Grupo_8547" data-name="Grupo 8547" transform="translate(-805.001 -594.626)">
    <circle id="Elipse_399" data-name="Elipse 399" cx="13.5" cy="13.5" r="13.5" transform="translate(805.001 594.626)" fill="#26232c"/>
    <path id="Trazado_10745" data-name="Trazado 10745" d="M-168.611,97.074l-3.151,4.675a.335.335,0,0,0,.5.436l3.1-2.7a.122.122,0,0,1,.2.1v8.429a.126.126,0,0,1-.218.083l-9.384-11.227a1.549,1.549,0,0,0-1.223-.569h-.335a1.605,1.605,0,0,0-1.592,1.608v11.865a1.609,1.609,0,0,0,1.609,1.608,1.614,1.614,0,0,0,1.374-.77l3.151-4.675a.335.335,0,0,0-.5-.436l-3.1,2.681a.122.122,0,0,1-.2-.1V99.672a.126.126,0,0,1,.218-.083l9.384,11.227a1.576,1.576,0,0,0,1.224.569h.335a1.609,1.609,0,0,0,1.609-1.608V97.912a1.634,1.634,0,0,0-1.625-1.608A1.614,1.614,0,0,0-168.611,97.074Z" transform="translate(991.627 504.613)" fill="#fff"/>
  </g>
</svg>
